<svg width="33" height="32" viewBox="0 0 33 32" fill="none" xmlns="http://www.w3.org/2000/svg">
<path d="M7.09968 15.4838C7.09968 15.2101 7.20654 14.9475 7.39675 14.7539C7.58697 14.5603 7.84496 14.4516 8.11396 14.4516L21.8981 14.4516L20.5795 13.12C20.3885 12.9256 20.2812 12.662 20.2812 12.3871C20.2812 12.1122 20.3885 11.8485 20.5795 11.6542C20.7705 11.4598 21.0296 11.3506 21.2997 11.3506C21.5698 11.3506 21.8288 11.4598 22.0198 11.6542L25.0627 14.7509C25.2034 14.8961 25.2988 15.0804 25.3367 15.2807C25.3746 15.4809 25.3534 15.6881 25.2757 15.8761C25.1996 16.0646 25.0704 16.226 24.9043 16.3399C24.7382 16.4538 24.5428 16.5151 24.3425 16.5161L8.11396 16.5161C7.84496 16.5161 7.58697 16.4073 7.39675 16.2138C7.20654 16.0202 7.09968 15.7576 7.09968 15.4838Z" fill="white"/>
<path d="M20.2857 18.5806C20.285 18.4448 20.3106 18.3101 20.361 18.1844C20.4115 18.0586 20.4859 17.9442 20.5799 17.8477L23.6227 14.751C23.8137 14.5566 24.0728 14.4474 24.3429 14.4474C24.4766 14.4474 24.6091 14.4742 24.7326 14.5263C24.8562 14.5784 24.9685 14.6547 25.063 14.751C25.1576 14.8472 25.2326 14.9615 25.2838 15.0872C25.335 15.213 25.3613 15.3478 25.3613 15.4839C25.3613 15.7588 25.254 16.0224 25.063 16.2168L22.0202 19.3135C21.9259 19.4103 21.8137 19.4871 21.6901 19.5395C21.5665 19.5919 21.4339 19.6189 21.3 19.6189C21.1661 19.6189 21.0336 19.5919 20.91 19.5395C20.7864 19.4871 20.6742 19.4103 20.5799 19.3135C20.4859 19.2171 20.4115 19.1027 20.361 18.9769C20.3106 18.8512 20.285 18.7165 20.2857 18.5806Z" fill="white"/>
</svg>
