<svg width="48" height="48" viewBox="0 0 48 48" fill="none" xmlns="http://www.w3.org/2000/svg">
<path d="M31.1801 24.52C36.8401 24.52 41.4401 19.92 41.4401 14.26C41.4401 8.6 36.8401 4 31.1801 4C25.5201 4 20.9201 8.6 20.9201 14.26C20.9201 16.86 21.8801 19.22 23.4801 21.02M6.56006 32.722C6.56006 36.122 9.32006 38.882 12.7201 38.882C16.1201 38.882 18.8801 36.122 18.8801 32.722C18.8801 29.322 16.1201 26.562 12.7201 26.562" stroke="#DDBB99" stroke-width="2.5" stroke-miterlimit="10" stroke-linecap="round" stroke-linejoin="round"/>
<path d="M33.2401 43.9978C34.598 43.9978 35.9003 43.4584 36.8605 42.4982C37.8207 41.538 38.3601 40.2357 38.3601 38.8778C38.3601 37.5199 37.8207 36.2176 36.8605 35.2574C35.9003 34.2972 34.598 33.7578 33.2401 33.7578C31.8822 33.7578 30.5799 34.2972 29.6197 35.2574C28.6595 36.2176 28.1201 37.5199 28.1201 38.8778C28.1201 40.2357 28.6595 41.538 29.6197 42.4982C30.5799 43.4584 31.8822 43.9978 33.2401 43.9978Z" stroke="#DDBB99" stroke-width="1.5" stroke-miterlimit="10"/>
</svg>
