<svg width="24" height="24" viewBox="0 0 24 24" fill="none" xmlns="http://www.w3.org/2000/svg">
<path d="M1.99994 3.4099L2.11994 2.1499L3.31994 2.5499C5.37652 3.26445 7.57268 3.48372 9.72994 3.1899C11.9968 2.83811 14.317 3.15072 16.4099 4.0899C17.5195 4.56235 18.4932 5.30482 19.2425 6.24971C19.9917 7.19461 20.4928 8.31191 20.6999 9.4999C20.9686 11.0346 20.8342 12.6127 20.3099 14.0799C19.9724 13.318 19.5779 12.5826 19.1299 11.8799C18.1137 10.3847 16.7057 9.19808 15.0599 8.4499C13.4745 7.72603 11.7416 7.38355 9.99994 7.4499C11.6579 7.7034 13.2449 8.29939 14.6599 9.1999C15.3425 9.62875 15.9675 10.1429 16.5199 10.7299C17.0483 11.3166 17.5141 11.9567 17.9099 12.6399C18.6534 14.0679 19.1824 15.5977 19.4799 17.1799C19.8006 18.7672 19.9747 20.3807 19.9999 21.9999H17.9999C17.9059 20.5477 17.7088 19.1041 17.4099 17.6799C16.0225 18.4291 14.4666 18.8112 12.8899 18.7899C11.4195 18.7889 9.96411 18.4931 8.60994 17.9199C0.999939 14.6699 1.99994 3.8599 1.99994 3.4099Z" fill="#796A57"/>
</svg>
