<svg width="28" height="28" viewBox="0 0 28 28" fill="none" xmlns="http://www.w3.org/2000/svg">
<path d="M11.6667 15.4585C11.4347 15.4585 11.2121 15.5507 11.048 15.7148C10.8839 15.8789 10.7917 16.1014 10.7917 16.3335C10.7917 16.5656 10.8839 16.7881 11.048 16.9522C11.2121 17.1163 11.4347 17.2085 11.6667 17.2085H16.3334C16.5655 17.2085 16.788 17.1163 16.9521 16.9522C17.1162 16.7881 17.2084 16.5656 17.2084 16.3335C17.2084 16.1014 17.1162 15.8789 16.9521 15.7148C16.788 15.5507 16.5655 15.4585 16.3334 15.4585H11.6667Z" fill="#BC6161" fill-opacity="0.6"/>
<path fill-rule="evenodd" clip-rule="evenodd" d="M17.1093 2.71834C17.3167 2.61461 17.5569 2.59751 17.777 2.6708C17.9971 2.74409 18.1791 2.90176 18.2829 3.10918L20.3981 7.33951C20.8974 7.36517 21.3513 7.40367 21.7631 7.46317C22.9951 7.63934 24.0148 8.01968 24.7393 8.91568C25.4638 9.81284 25.6224 10.8885 25.5373 12.1298C25.4556 13.3327 25.1289 14.8505 24.7229 16.7463L24.1968 19.2045C23.9226 20.4843 23.6998 21.5215 23.4198 22.3312C23.1281 23.177 22.7431 23.8712 22.0874 24.402C21.4318 24.9328 20.6711 25.1627 19.7844 25.2712C18.9328 25.375 17.8711 25.375 16.5644 25.375H11.4358C10.1268 25.375 9.06626 25.375 8.21459 25.2712C7.32792 25.1627 6.56726 24.9328 5.91159 24.402C5.25476 23.8712 4.87092 23.177 4.57926 22.3323C4.29926 21.5215 4.07759 20.4843 3.80226 19.2057L3.27609 16.7475C2.87009 14.8505 2.54459 13.3327 2.46176 12.1298C2.37659 10.8885 2.53526 9.81284 3.25976 8.91568C3.98309 8.01968 5.00276 7.63934 6.23476 7.46317C6.64659 7.40484 7.10159 7.36517 7.59976 7.33951L9.71842 3.10918C9.82316 2.90341 10.005 2.74738 10.2243 2.67509C10.4435 2.6028 10.6825 2.62011 10.8891 2.72324C11.0956 2.82637 11.2531 3.00697 11.3271 3.22568C11.4011 3.44438 11.3856 3.68347 11.2841 3.89084L9.58076 7.29401C10.0054 7.29167 10.4523 7.29168 10.9213 7.29168H17.0789C17.5479 7.29168 17.9948 7.29167 18.4194 7.29401L16.7173 3.89084C16.6135 3.68336 16.5964 3.44318 16.6697 3.2231C16.743 3.00302 16.9007 2.82104 17.1081 2.71718L17.1093 2.71834ZM6.68742 9.16767L6.21726 10.108C6.16487 10.2109 6.13338 10.3232 6.12459 10.4383C6.1158 10.5535 6.12989 10.6692 6.16605 10.7789C6.2022 10.8886 6.25971 10.99 6.33526 11.0773C6.4108 11.1647 6.50289 11.2362 6.60621 11.2878C6.70952 11.3394 6.82203 11.37 6.93724 11.3779C7.05245 11.3858 7.16808 11.3708 7.27747 11.3338C7.38686 11.2968 7.48784 11.2385 7.57459 11.1623C7.66134 11.086 7.73215 10.9934 7.78292 10.8897L8.70109 9.05334C9.36609 9.04168 10.1244 9.04051 10.9924 9.04051H17.0078C17.8758 9.04051 18.6341 9.04051 19.2991 9.05217L20.2173 10.8897C20.322 11.0954 20.5038 11.2515 20.7231 11.3238C20.9424 11.396 21.1813 11.3787 21.3879 11.2756C21.5945 11.1725 21.7519 10.9919 21.8259 10.7732C21.8999 10.5545 21.8844 10.3154 21.7829 10.108L21.3128 9.16767L21.5158 9.19451C22.5471 9.34268 23.0523 9.61217 23.3789 10.0147C23.6998 10.4113 23.8573 10.9515 23.7943 11.9572H4.20592C4.14292 10.9515 4.30042 10.4113 4.62126 10.0147C4.94792 9.61217 5.45309 9.34268 6.48442 9.19451L6.68742 9.16767ZM5.00276 16.45C4.8022 15.5389 4.61512 14.6249 4.44159 13.7083H23.5586C23.3844 14.6249 23.1969 15.5389 22.9963 16.45L22.4969 18.7833C22.2076 20.1308 22.0069 21.063 21.7654 21.7607C21.5321 22.4373 21.2941 22.7943 20.9873 23.0417C20.6816 23.289 20.2814 23.4477 19.5733 23.534C18.8394 23.6238 17.8851 23.625 16.5073 23.625H11.4918C10.1151 23.625 9.16076 23.6238 8.42692 23.534C7.71759 23.4477 7.31859 23.289 7.01292 23.0417C6.70609 22.7943 6.46692 22.4362 6.23476 21.7607C5.99326 21.063 5.79142 20.1308 5.50326 18.7833L5.00276 16.45Z" fill="#BC6161" fill-opacity="0.6"/>
</svg>
