<svg width="29" height="29" viewBox="0 0 29 29" fill="none" xmlns="http://www.w3.org/2000/svg">
<path d="M25 25L19.9332 19.9332M19.9332 19.9332C20.7999 19.0665 21.4874 18.0375 21.9564 16.9051C22.4255 15.7727 22.6669 14.559 22.6669 13.3333C22.6669 12.1076 22.4255 10.8939 21.9564 9.76153C21.4874 8.62913 20.7999 7.6002 19.9332 6.7335C19.0665 5.8668 18.0375 5.17929 16.9051 4.71024C15.7727 4.24118 14.559 3.99976 13.3333 3.99976C12.1076 3.99976 10.8939 4.24118 9.76153 4.71024C8.62912 5.17929 7.6002 5.8668 6.7335 6.7335C4.98311 8.48388 3.99976 10.8579 3.99976 13.3333C3.99976 15.8088 4.98311 18.1828 6.7335 19.9332C8.48388 21.6836 10.8579 22.6669 13.3333 22.6669C15.8087 22.6669 18.1828 21.6836 19.9332 19.9332Z" stroke="#BC6161" stroke-opacity="0.6" stroke-width="2" stroke-linecap="round" stroke-linejoin="round"/>
</svg>
