<svg width="48" height="48" viewBox="0 0 48 48" fill="none" xmlns="http://www.w3.org/2000/svg">
<g clip-path="url(#clip0_237_2970)">
<path fill-rule="evenodd" clip-rule="evenodd" d="M13.7802 6.01177C13.4815 6.04467 13.194 6.14447 12.9392 6.30375C12.6844 6.46302 12.4687 6.67768 12.3082 6.93177C5.90821 17.0658 6.87421 27.8238 12.2202 34.5998C14.8902 37.9818 18.6402 40.3418 23.0142 41.0398C26.8302 41.6458 31.0002 40.9678 35.2022 38.7678C35.5882 39.9858 35.8622 41.1678 36.0202 42.2818C36.0971 42.8051 36.3781 43.2766 36.8018 43.5932C37.2255 43.9099 37.7573 44.0457 38.281 43.9712C38.8046 43.8966 39.2774 43.6176 39.5959 43.1953C39.9143 42.773 40.0525 42.2417 39.9802 41.7178C39.7031 39.8618 39.2325 38.0398 38.5762 36.2818C41.6502 32.9018 42.4902 28.6258 42.1162 24.8058C41.7042 20.5918 39.7822 16.5498 37.2802 14.4638C33.9362 11.6778 30.4242 10.5338 27.3762 9.97377C26.0442 9.74285 24.703 9.56869 23.3562 9.45177C22.3982 9.35577 21.4202 9.29177 20.4842 9.05977C19.0991 8.72385 17.775 8.17318 16.5602 7.42777C15.6762 6.87577 14.9222 5.88377 13.7802 6.01177ZM33.7002 35.0358C31.4762 30.5018 27.8402 26.1558 23.1062 23.7878C22.8692 23.6716 22.6575 23.5097 22.4833 23.3113C22.3092 23.113 22.176 22.8821 22.0915 22.6321C22.007 22.382 21.9729 22.1177 21.991 21.8544C22.0091 21.591 22.0792 21.3339 22.1972 21.0978C22.3152 20.8617 22.4788 20.6512 22.6785 20.4786C22.8782 20.306 23.1101 20.1747 23.3608 20.0921C23.6115 20.0096 23.8761 19.9775 24.1393 19.9977C24.4024 20.0179 24.659 20.0899 24.8942 20.2098C30.1102 22.8178 34.1062 27.3278 36.7042 32.1378C36.1878 32.9792 35.5473 33.7378 34.8042 34.3878C34.4342 34.6198 34.0662 34.8338 33.7002 35.0358Z" fill="#796A57"/>
</g>
<defs>
<clipPath id="clip0_237_2970">
<rect width="48" height="48" fill="white" transform="matrix(-1 0 0 1 48 0)"/>
</clipPath>
</defs>
</svg>
