<svg width="32" height="32" viewBox="0 0 32 32" fill="none" xmlns="http://www.w3.org/2000/svg">
<path d="M24 20C25.66 20.7053 26.6667 21.6307 26.6667 22.6453C26.6667 24.8547 21.8907 26.6453 16 26.6453C10.1093 26.6453 5.33333 24.8547 5.33333 22.6453C5.33333 21.632 6.33999 20.704 7.99999 20" stroke="white" stroke-width="2" stroke-linecap="round" stroke-linejoin="round"/>
<path fill-rule="evenodd" clip-rule="evenodd" d="M16.984 23.5665L16.9907 23.5598L17.0067 23.5412L17.0667 23.4745L17.288 23.2265C18.3959 21.9647 19.4408 20.6489 20.4187 19.2838C21.2747 18.0838 22.152 16.7238 22.82 15.3732C23.4733 14.0532 24 12.6012 24 11.2585C24 6.4945 20.5093 2.6665 16 2.6665C11.4907 2.6665 8 6.49317 8 11.2585C8 12.6012 8.52667 14.0532 9.18 15.3732C9.848 16.7238 10.7267 18.0838 11.58 19.2838C12.6233 20.7388 13.7426 22.1376 14.9333 23.4745L14.9933 23.5412L15.0093 23.5598L15.016 23.5665C15.1409 23.7031 15.2929 23.8122 15.4624 23.8869C15.6318 23.9615 15.8149 24.0001 16 24.0001C16.1851 24.0001 16.3682 23.9615 16.5376 23.8869C16.7071 23.8122 16.8591 23.7031 16.984 23.5665ZM16 7.99984C15.2928 7.99984 14.6145 8.28079 14.1144 8.78089C13.6143 9.28098 13.3333 9.95926 13.3333 10.6665C13.3333 11.3737 13.6143 12.052 14.1144 12.5521C14.6145 13.0522 15.2928 13.3332 16 13.3332C16.7072 13.3332 17.3855 13.0522 17.8856 12.5521C18.3857 12.052 18.6667 11.3737 18.6667 10.6665C18.6667 9.95926 18.3857 9.28098 17.8856 8.78089C17.3855 8.28079 16.7072 7.99984 16 7.99984Z" fill="white"/>
</svg>
