<svg width="32" height="32" viewBox="0 0 32 32" fill="none" xmlns="http://www.w3.org/2000/svg">
<g clip-path="url(#clip0_206_2970)">
<path fill-rule="evenodd" clip-rule="evenodd" d="M5.33334 15.3333C5.33334 10.764 9.87067 6.66667 16 6.66667C22.1293 6.66667 26.6667 10.764 26.6667 15.3333C26.6667 17.58 25.448 19.7507 23.2653 21.756C21.4387 23.4333 19.024 24.908 16.38 26.1053C16.3034 25.5314 16.0943 24.9832 15.7693 24.504C15.2853 23.8173 14.5427 23.348 13.5627 23.176C8.58 22.3067 5.33334 19.2 5.33334 15.3333ZM16 4C8.87467 4 2.66667 8.85733 2.66667 15.3333C2.66667 20.9867 7.39867 24.808 13.104 25.8027C13.5933 25.888 13.716 26.184 13.7613 26.6493C13.824 27.2707 13.688 27.9347 13.9653 28.516C14.2973 29.212 15.116 29.5227 15.828 29.2373C19.256 27.8667 22.5787 26.0067 25.068 23.72C27.552 21.44 29.3333 18.6093 29.3333 15.3333C29.3333 8.85733 23.1253 4 16 4ZM16.3573 12.48C16.1819 12.2696 15.9459 12.1184 15.6815 12.0469C15.4171 11.9753 15.1371 11.987 14.8795 12.0802C14.6219 12.1735 14.3993 12.3438 14.242 12.568C14.0846 12.7922 14.0001 13.0594 14 13.3333V17.3333C14 17.687 14.1405 18.0261 14.3905 18.2761C14.6406 18.5262 14.9797 18.6667 15.3333 18.6667C15.687 18.6667 16.0261 18.5262 16.2761 18.2761C16.5262 18.0261 16.6667 17.687 16.6667 17.3333V17.016L17.6427 18.1867C17.8181 18.397 18.0541 18.5483 18.3185 18.6198C18.5829 18.6913 18.8629 18.6797 19.1205 18.5865C19.3781 18.4932 19.6007 18.3229 19.758 18.0987C19.9154 17.8745 19.9999 17.6073 20 17.3333V13.3333C20 12.9797 19.8595 12.6406 19.6095 12.3905C19.3594 12.1405 19.0203 12 18.6667 12C18.313 12 17.9739 12.1405 17.7239 12.3905C17.4738 12.6406 17.3333 12.9797 17.3333 13.3333V13.6507L16.3573 12.48ZM9.33334 13.3333C9.33334 12.9797 9.19286 12.6406 8.94281 12.3905C8.69277 12.1405 8.35363 12 8 12C7.64638 12 7.30724 12.1405 7.0572 12.3905C6.80715 12.6406 6.66667 12.9797 6.66667 13.3333V17.3333C6.66667 17.687 6.80715 18.0261 7.0572 18.2761C7.30724 18.5262 7.64638 18.6667 8 18.6667H9.33334C9.68696 18.6667 10.0261 18.5262 10.2761 18.2761C10.5262 18.0261 10.6667 17.687 10.6667 17.3333C10.6667 16.9797 10.5262 16.6406 10.2761 16.3905C10.0261 16.1405 9.68696 16 9.33334 16V13.3333ZM12 12C12.3536 12 12.6928 12.1405 12.9428 12.3905C13.1929 12.6406 13.3333 12.9797 13.3333 13.3333V17.3333C13.3333 17.687 13.1929 18.0261 12.9428 18.2761C12.6928 18.5262 12.3536 18.6667 12 18.6667C11.6464 18.6667 11.3072 18.5262 11.0572 18.2761C10.8071 18.0261 10.6667 17.687 10.6667 17.3333V13.3333C10.6667 12.9797 10.8071 12.6406 11.0572 12.3905C11.3072 12.1405 11.6464 12 12 12ZM24 14.6667H23.8213C23.939 14.8691 24.001 15.0991 24.001 15.3333C24.001 15.5675 23.939 15.7975 23.8213 16H24C24.3536 16 24.6928 16.1405 24.9428 16.3905C25.1929 16.6406 25.3333 16.9797 25.3333 17.3333C25.3333 17.687 25.1929 18.0261 24.9428 18.2761C24.6928 18.5262 24.3536 18.6667 24 18.6667H22C21.6464 18.6667 21.3072 18.5262 21.0572 18.2761C20.8071 18.0261 20.6667 17.687 20.6667 17.3333V13.3333C20.6667 12.9797 20.8071 12.6406 21.0572 12.3905C21.3072 12.1405 21.6464 12 22 12H24C24.3536 12 24.6928 12.1405 24.9428 12.3905C25.1929 12.6406 25.3333 12.9797 25.3333 13.3333C25.3333 13.687 25.1929 14.0261 24.9428 14.2761C24.6928 14.5262 24.3536 14.6667 24 14.6667Z" fill="white"/>
</g>
<defs>
<clipPath id="clip0_206_2970">
<rect width="32" height="32" fill="white"/>
</clipPath>
</defs>
</svg>
