<svg width="32" height="32" viewBox="0 0 32 32" fill="none" xmlns="http://www.w3.org/2000/svg">
<path d="M13.3333 17.6665C13.0681 17.6665 12.8138 17.7719 12.6262 17.9594C12.4387 18.1469 12.3333 18.4013 12.3333 18.6665C12.3333 18.9317 12.4387 19.1861 12.6262 19.3736C12.8138 19.5611 13.0681 19.6665 13.3333 19.6665H18.6667C18.9319 19.6665 19.1862 19.5611 19.3738 19.3736C19.5613 19.1861 19.6667 18.9317 19.6667 18.6665C19.6667 18.4013 19.5613 18.1469 19.3738 17.9594C19.1862 17.7719 18.9319 17.6665 18.6667 17.6665H13.3333Z" fill="white"/>
<path fill-rule="evenodd" clip-rule="evenodd" d="M19.5533 3.10654C19.7905 2.98799 20.0649 2.96844 20.3165 3.0522C20.568 3.13596 20.776 3.31616 20.8947 3.5532L23.312 8.38787C23.8827 8.4172 24.4013 8.4612 24.872 8.5292C26.28 8.73054 27.4453 9.1652 28.2733 10.1892C29.1013 11.2145 29.2827 12.4439 29.1853 13.8625C29.092 15.2372 28.7187 16.9719 28.2547 19.1385L27.6533 21.9479C27.34 23.4105 27.0853 24.5959 26.7653 25.5212C26.432 26.4879 25.992 27.2812 25.2427 27.8879C24.4933 28.4945 23.624 28.7572 22.6107 28.8812C21.6373 28.9999 20.424 28.9999 18.9307 28.9999H13.0693C11.5733 28.9999 10.3613 28.9999 9.388 28.8812C8.37467 28.7572 7.50533 28.4945 6.756 27.8879C6.00533 27.2812 5.56667 26.4879 5.23334 25.5225C4.91334 24.5959 4.66 23.4105 4.34534 21.9492L3.744 19.1399C3.28 16.9719 2.908 15.2372 2.81333 13.8625C2.716 12.4439 2.89733 11.2145 3.72533 10.1892C4.552 9.1652 5.71733 8.73054 7.12533 8.5292C7.596 8.46254 8.116 8.4172 8.68534 8.38787L11.1067 3.5532C11.2264 3.31804 11.4342 3.13973 11.6848 3.05711C11.9354 2.97449 12.2085 2.99427 12.4445 3.11213C12.6806 3.23 12.8606 3.4364 12.9451 3.68635C13.0297 3.9363 13.012 4.20955 12.896 4.44654L10.9493 8.33587C11.4347 8.3332 11.9453 8.3332 12.4813 8.3332H19.5187C20.0547 8.3332 20.5653 8.3332 21.0507 8.33587L19.1053 4.44654C18.9868 4.20942 18.9672 3.93493 19.051 3.68341C19.1348 3.43188 19.315 3.22391 19.552 3.1052L19.5533 3.10654ZM7.64267 10.4772L7.10534 11.5519C7.04547 11.6695 7.00947 11.7978 6.99943 11.9294C6.98938 12.061 7.00549 12.1933 7.04681 12.3186C7.08813 12.4439 7.15386 12.5599 7.24019 12.6597C7.32653 12.7595 7.43177 12.8412 7.54985 12.9002C7.66793 12.9591 7.79651 12.9941 7.92817 13.0032C8.05984 13.0122 8.19199 12.995 8.31701 12.9527C8.44202 12.9105 8.55743 12.8438 8.65657 12.7567C8.75572 12.6696 8.83664 12.5637 8.89467 12.4452L9.944 10.3465C10.704 10.3332 11.5707 10.3319 12.5627 10.3319H19.4373C20.4293 10.3319 21.296 10.3319 22.056 10.3452L23.1053 12.4452C23.225 12.6804 23.4328 12.8587 23.6834 12.9413C23.934 13.0239 24.2071 13.0041 24.4432 12.8863C24.6793 12.7684 24.8592 12.562 24.9438 12.3121C25.0284 12.0621 25.0107 11.7889 24.8947 11.5519L24.3573 10.4772L24.5893 10.5079C25.768 10.6772 26.3453 10.9852 26.7187 11.4452C27.0853 11.8985 27.2653 12.5159 27.1933 13.6652H4.80667C4.73467 12.5159 4.91467 11.8985 5.28134 11.4452C5.65467 10.9852 6.232 10.6772 7.41067 10.5079L7.64267 10.4772ZM5.71734 18.7999C5.48813 17.7586 5.27432 16.7141 5.076 15.6665H26.924C26.7249 16.714 26.5107 17.7586 26.2813 18.7999L25.7107 21.4665C25.38 23.0065 25.1507 24.0719 24.8747 24.8692C24.608 25.6425 24.336 26.0505 23.9853 26.3332C23.636 26.6159 23.1787 26.7972 22.3693 26.8959C21.5307 26.9985 20.44 26.9999 18.8653 26.9999H13.1333C11.56 26.9999 10.4693 26.9985 9.63067 26.8959C8.82 26.7972 8.364 26.6159 8.01467 26.3332C7.664 26.0505 7.39067 25.6412 7.12533 24.8692C6.84933 24.0719 6.61867 23.0065 6.28934 21.4665L5.71734 18.7999Z" fill="white"/>
</svg>
