<svg width="455" height="119" viewBox="0 0 455 119" fill="none" xmlns="http://www.w3.org/2000/svg">
<path d="M1.312 59.888H30.752V63.184H1.312V59.888ZM36.244 50.256H60.82V75.888H57.524V53.328H39.412V75.984H36.244V50.256ZM37.716 70.192H59.668V73.296H37.716V70.192ZM66.696 49.36H95.304V52.4H66.696V49.36ZM78.728 51.92H81.96V76.656H78.728V51.92ZM80.456 59.6L82.504 57.232C86.184 59.024 91.208 61.872 93.736 63.856L91.528 66.608C89.16 64.592 84.232 61.584 80.456 59.6ZM101.532 51.76H125.692V54.8H101.532V51.76ZM99.068 60.176H128.028V63.216H99.068V60.176ZM111.868 46.96H115.068V61.712H111.868V46.96ZM116.668 65.872L119.42 64.624C122.268 67.792 125.308 72.048 126.78 74.928L123.836 76.464C122.492 73.584 119.42 69.072 116.668 65.872ZM102.044 75.728C101.884 75.12 101.404 73.584 101.02 72.752C101.756 72.56 102.46 71.856 103.42 70.736C104.444 69.712 107.676 65.52 109.628 61.488L113.02 62.48C110.332 66.928 106.972 71.216 103.932 74.128V74.192C103.932 74.192 102.044 75.152 102.044 75.728ZM102.044 75.728L101.98 73.264L104.06 72.112L122.524 70.896C122.652 71.76 122.94 73.04 123.132 73.68C105.5 75.088 103.484 75.184 102.044 75.728ZM143.344 68.368L142.48 66.288C145.136 65.328 146.576 63.728 146.576 61.552L146.128 58.672L147.888 61.296C147.408 61.808 146.768 62 146.096 62C144.656 62 143.408 61.104 143.408 59.472C143.408 57.84 144.688 56.912 146.16 56.912C148.144 56.912 149.2 58.48 149.2 60.912C149.2 64.432 146.96 67.216 143.344 68.368ZM177.188 47.12L180.164 47.792C178.884 52.88 176.74 57.872 174.244 61.072C173.732 60.56 172.516 59.568 171.812 59.12C174.212 56.24 176.1 51.728 177.188 47.12ZM176.484 60.976L179.428 61.584C178.468 65.744 176.772 69.808 174.884 72.464C174.308 71.984 173.028 71.184 172.292 70.8C174.212 68.432 175.652 64.688 176.484 60.976ZM177.316 52.976H191.172V55.792H176.196L177.316 52.976ZM181.732 54.192H184.74V73.2C184.74 74.768 184.452 75.632 183.428 76.144C182.468 76.624 180.996 76.72 178.98 76.72C178.82 75.856 178.372 74.512 177.924 73.68C179.364 73.744 180.74 73.712 181.188 73.712C181.572 73.712 181.732 73.584 181.732 73.168V54.192ZM186.532 61.616L189.252 60.72C191.012 64.048 192.516 68.4 193.028 71.344L190.148 72.336C189.7 69.424 188.196 64.944 186.532 61.616ZM190.308 52.976H190.724L191.236 52.88L193.348 53.296C192.932 55.792 192.356 58.64 191.94 60.464L189.348 59.984C189.668 58.32 190.052 55.568 190.308 53.392V52.976ZM170.564 47.12L173.412 48.016C171.332 53.456 168.036 59.024 164.548 62.64C164.26 61.904 163.428 60.272 162.884 59.568C165.956 56.56 168.836 51.856 170.564 47.12ZM167.364 55.632L170.212 52.752L170.244 52.784V76.656H167.364V55.632ZM200.792 58.064V61.392H207.224V58.064H200.792ZM198.168 55.632H210.008V63.792H198.168V55.632ZM196.6 50.832H211.256V53.488H196.6V50.832ZM211.576 55.248H225.656V57.968H211.576V55.248ZM217.944 60.112H220.6V72.432C220.6 73.072 220.632 73.456 220.792 73.584C220.952 73.68 221.176 73.744 221.432 73.744C221.688 73.744 222.232 73.744 222.584 73.744C222.872 73.744 223.192 73.712 223.352 73.584C223.544 73.52 223.672 73.232 223.736 72.688C223.832 72.144 223.864 70.8 223.896 69.168C224.44 69.68 225.464 70.192 226.232 70.448C226.2 71.92 226.04 73.616 225.848 74.288C225.624 74.992 225.272 75.44 224.728 75.664C224.248 75.952 223.448 76.016 222.872 76.016C222.36 76.016 221.272 76.016 220.824 76.016C220.12 76.016 219.256 75.824 218.744 75.408C218.2 74.928 217.944 74.352 217.944 72.24V60.112ZM215.896 47.056H218.744C218.68 57.264 218.424 69.872 211.064 76.752C210.616 76.144 209.688 75.376 208.92 74.928C215.992 68.624 215.832 56.624 215.896 47.056ZM202.904 63.056H205.624V73.648C205.624 74.928 205.4 75.632 204.536 76.08C203.704 76.464 202.552 76.528 200.856 76.496C200.76 75.76 200.344 74.704 199.992 74C201.08 74.032 202.136 74.032 202.456 74C202.808 74 202.904 73.904 202.904 73.584V63.056ZM199.128 65.136L201.624 65.68C200.92 68.688 199.704 71.856 198.392 73.872C197.912 73.456 196.856 72.72 196.28 72.4C197.592 70.576 198.552 67.824 199.128 65.136ZM206.552 65.744L208.664 64.784C209.72 66.544 210.712 68.88 211.064 70.448L208.792 71.504C208.472 69.936 207.544 67.504 206.552 65.744ZM219.512 49.488L221.496 48.336C222.808 49.744 224.248 51.76 224.856 53.104L222.744 54.416C222.168 53.072 220.792 50.992 219.512 49.488ZM201.752 47.568L204.536 46.928C205.24 48.304 206.008 50.16 206.296 51.312L203.384 52.048C203.128 50.864 202.424 48.976 201.752 47.568ZM229.356 60.912H257.676V63.6H229.356V60.912ZM243.628 66.672H255.596V69.296H243.628V66.672ZM242.252 62.224H245.324V74.224H242.252V62.224ZM236.556 67.376C238.412 72.368 242.572 73.264 248.556 73.296C250.028 73.296 256.492 73.296 258.444 73.232C257.996 73.904 257.516 75.248 257.356 76.144H248.428C240.972 76.144 236.62 74.8 234.06 68.24L236.556 67.376ZM234.572 64.496L237.58 64.912C236.556 70.224 234.252 74.224 230.732 76.752C230.284 76.208 229.1 75.088 228.428 74.64C231.756 72.528 233.772 69.008 234.572 64.496ZM235.468 54.672V56.848H251.276V54.672H235.468ZM235.468 50.448V52.592H251.276V50.448H235.468ZM232.556 48.208H254.348V59.056H232.556V48.208ZM265.088 48.112H286.976V58.16H283.904V50.32H268.032V58.16H265.088V48.112ZM269.28 51.952H282.656V53.84H269.28V51.952ZM269.28 55.472H282.592V57.456H269.28V55.472ZM261.728 59.216H290.176V61.68H261.728V59.216ZM275.904 63.312H287.008V65.712H275.904V63.312ZM266.176 63.408H273.792V65.584H266.176V63.408ZM266.176 67.376H273.792V69.552H266.176V67.376ZM279.68 65.488C281.536 69.776 285.472 73.04 290.784 74.32C290.144 74.864 289.376 75.984 288.96 76.688C283.392 75.056 279.392 71.344 277.248 66.192L279.68 65.488ZM286.304 63.312H286.848L287.36 63.216L289.216 63.952C287.2 70.576 282.336 74.64 276.672 76.624C276.32 75.92 275.584 74.832 275.04 74.256C280.128 72.752 284.704 69.008 286.304 63.792V63.312ZM261.344 72.24C264.48 72.016 269.216 71.568 273.824 71.12L273.888 73.488C269.504 74 264.96 74.48 261.632 74.832L261.344 72.24ZM272.224 60.016H275.104V76.688H272.224V60.016ZM264.32 60.048H267.104V72.976H264.32V60.048ZM297.332 50.256H319.732V52.912H297.332V50.256ZM294.036 56.08H323.028V58.736H294.036V56.08ZM294.836 68.88H322.132V71.536H294.836V68.88ZM306.804 47.088H309.972V57.232H306.804V47.088ZM306.804 65.232H309.972V76.72H306.804V65.232ZM299.956 59.376L302.868 58.544C303.636 59.728 304.468 61.328 304.756 62.352L301.716 63.312C301.46 62.256 300.692 60.624 299.956 59.376ZM314.196 58.608L317.428 59.408C316.372 61.168 315.156 63.056 314.228 64.24L311.796 63.472C312.66 62.128 313.652 60.048 314.196 58.608ZM296.628 62.928H320.628V65.584H296.628V62.928ZM328.936 48.208L331.336 47.184C332.264 48.624 333.384 50.512 333.864 51.728L331.432 52.944C330.92 51.696 329.832 49.68 328.936 48.208ZM345.096 63.792H347.816V74.544H345.096V63.792ZM342.504 55.216V58.192H350.792V55.216H342.504ZM339.816 52.848H353.608V60.56H339.816V52.848ZM338.152 62.352H355.048V76.624H352.136V64.816H340.968V76.688H338.152V62.352ZM339.784 67.6H353.576V69.936H339.784V67.6ZM339.816 72.816H353.608V75.28H339.816V72.816ZM338.024 48.464H355.208V51.024H338.024V48.464ZM326.664 52.976H336.296V55.728H326.664V52.976ZM334.056 60.336C334.952 60.944 337.832 63.536 338.504 64.208L336.744 66.672C335.784 65.392 333.416 62.864 332.36 61.808L334.056 60.336ZM335.208 52.976H335.816L336.328 52.848L338.024 53.936C335.816 59.92 331.304 65.424 326.984 68.432C326.696 67.632 325.96 66.16 325.48 65.616C329.48 63.12 333.512 58.32 335.208 53.552V52.976ZM330.824 63.152L333.768 59.6V76.688H330.824V63.152ZM361.852 52.176H371.612V73.36H361.852V70.672H368.86V54.832H361.852V52.176ZM360.06 52.176H362.844V75.824H360.06V52.176ZM361.692 60.912H370.236V63.568H361.692V60.912ZM364.828 46.96L368.092 47.472C367.42 49.552 366.62 51.792 365.98 53.264L363.548 52.688C364.06 51.088 364.604 48.656 364.828 46.96ZM376.028 52.016H385.66V54.8H376.028V52.016ZM384.604 52.016H387.42C387.42 52.016 387.42 53.072 387.388 53.456C386.94 68.016 386.524 73.04 385.212 74.672C384.444 75.728 383.644 76.048 382.428 76.208C381.276 76.336 379.356 76.272 377.532 76.208C377.468 75.344 377.084 74.064 376.54 73.264C378.62 73.424 380.54 73.456 381.308 73.456C381.948 73.456 382.332 73.36 382.684 72.912C383.74 71.792 384.22 66.384 384.604 52.624V52.016ZM376.444 46.928L379.356 47.6C378.14 52.368 376.156 57.136 373.98 60.176C373.436 59.696 372.188 58.832 371.484 58.448C373.66 55.664 375.42 51.28 376.444 46.928ZM374.94 60.72L377.308 59.376C379.004 61.616 381.18 64.72 382.204 66.608L379.612 68.176C378.684 66.224 376.604 63.056 374.94 60.72ZM404.112 47.088H407.536C407.376 53.168 407.152 69.072 393.648 76.624C393.104 75.824 392.112 74.864 391.152 74.192C404.368 67.344 403.984 52.24 404.112 47.088ZM407.216 50.992C407.472 53.424 408.656 68.336 421.04 73.872C420.144 74.576 419.28 75.6 418.832 76.464C405.968 70.384 404.752 54.288 404.304 51.312L407.216 50.992ZM437.188 66.064L436.452 54.288L436.324 50.064H440.644L440.516 54.288L439.78 66.064H437.188ZM438.5 74.224C437.124 74.224 436.1 73.264 436.1 71.824C436.1 70.352 437.156 69.36 438.5 69.36C439.812 69.36 440.868 70.352 440.868 71.824C440.868 73.264 439.812 74.224 438.5 74.224Z" fill="#BC6161"/>
<path d="M399.296 33.836C399.609 35.9616 398.794 38.2655 396.819 40.7331C394.844 43.2003 391.748 45.7792 387.614 48.4245C379.349 53.7132 367.04 59.2035 351.582 64.5714C320.674 75.3044 277.274 85.5147 228.714 92.6511C180.153 99.7874 135.651 102.495 102.962 101.108C86.6129 100.414 73.2447 98.6975 63.8076 96.0102C59.0874 94.6661 55.3797 93.0872 52.7784 91.2925C50.1767 89.4975 48.7342 87.5252 48.4219 85.3996C48.1095 83.274 48.9236 80.97 50.8988 78.5024C52.8738 76.0353 55.9704 73.4564 60.1044 70.8111C68.3693 65.5224 80.6784 60.032 96.1364 54.6642C127.044 43.9312 170.444 33.7209 219.005 26.5845C267.565 19.4481 312.067 16.7407 344.756 18.1276C361.105 18.8212 374.473 20.5381 383.91 23.2253C388.631 24.5695 392.338 26.1484 394.94 27.9431C397.541 29.738 398.984 31.7104 399.296 33.836Z" stroke="#DDBB99"/>
</svg>
