<svg width="921" height="1457" viewBox="0 0 921 1457" fill="none" xmlns="http://www.w3.org/2000/svg">
<rect width="920" height="1457" transform="translate(1)" fill="white"/>
<path d="M27.22 385.212C29.1046 386.242 30.5162 388.438 29.7796 389.9C29.1488 391.151 27.3164 391.411 25.631 391.388C21.1718 391.326 16.4051 390.009 12.1396 387.675C9.55456 390.863 6.69289 393.849 3.49902 396.531C2.84146 397.084 1.54262 395.968 2.20132 395.415C5.36423 392.758 8.20656 389.809 10.77 386.654C7.74242 384.191 4.93789 381.845 2.59496 378.85C1.32571 377.227 0.246787 375.374 0.316417 373.655C0.385815 371.936 1.99552 370.519 4.00732 371.022C5.72912 371.452 7.04134 373.01 7.9608 374.466C10.2536 378.098 11.4788 382.065 11.4783 385.768C13.6814 382.968 15.6731 380.014 17.4769 376.963C17.8051 376.406 18.1275 375.845 18.4439 375.281C15.3176 372.741 12.4199 370.347 10.0109 367.267C8.74151 365.644 7.66294 363.792 7.73256 362.073C7.80196 360.354 9.41167 358.937 11.4232 359.44C13.1451 359.87 14.4573 361.428 15.3768 362.884C17.7303 366.612 18.9577 370.694 18.8897 374.481C21.2377 370.2 23.2313 365.69 24.67 360.951C21.2487 359.024 18.0635 357.175 15.1362 354.56C13.5518 353.144 12.0839 351.454 11.7055 349.667C11.327 347.88 12.4418 346.092 14.4204 346.202C16.1139 346.295 17.7205 347.634 18.9403 348.949C21.9323 352.174 24.0606 355.944 25.0354 359.701C25.2498 358.939 25.4494 358.172 25.6339 357.398C26.3242 354.49 26.7978 351.484 26.8601 348.379C26.8938 346.681 26.7379 344.969 26.4593 343.244C22.6192 341.644 19.0556 340.156 15.6151 337.742C13.8596 336.511 12.166 334.98 11.4902 333.199C10.8141 331.417 11.5559 329.425 13.4545 329.26C15.0795 329.119 16.8426 330.27 18.2341 331.449C21.9971 334.637 24.877 338.654 26.3789 342.783C26.0977 341.163 25.7176 339.531 25.2835 337.887C23.9046 332.662 22.0436 327.256 21.1407 321.999C17.3972 320.443 13.9141 318.971 10.5478 316.614C8.79138 315.385 7.09588 313.856 6.41737 312.075C5.73906 310.293 6.47762 308.299 8.37523 308.132C9.99951 307.989 11.7638 309.138 13.1565 310.316C16.626 313.249 19.3484 316.887 20.935 320.669C20.491 317.492 20.4436 314.38 21.1199 311.407C21.5664 309.443 22.354 307.621 23.3493 305.921C20.5006 303.232 17.8677 300.688 15.7893 297.539C14.6753 295.852 13.7808 293.958 14.0423 292.294C14.3039 290.63 16.1016 289.395 18.0973 290.06C19.805 290.629 20.9702 292.257 21.7461 293.752C23.6198 297.363 24.4371 301.192 24.1135 304.697C24.6331 303.918 25.1906 303.164 25.7847 302.437C28.4692 299.151 31.9484 296.432 36.1026 294.587C36.2032 294.541 36.321 294.521 36.4464 294.527C38.7829 293.235 41.1113 292.108 43.9961 291.519C45.8042 291.149 47.8755 291.058 49.8204 291.93C51.7651 292.802 53.4005 294.907 52.8735 296.468C52.4226 297.803 50.6892 298.241 49.062 298.377C45.0227 298.713 40.5846 297.948 36.4156 296.22C31.6206 298.499 27.516 302.056 24.9742 306.467C27.8282 305.12 30.5476 303.908 33.9605 303.437C35.8212 303.179 37.9285 303.211 39.8362 304.18C41.7437 305.15 43.2466 307.313 42.5972 308.814C42.041 310.099 40.251 310.428 38.5914 310.466C34.0503 310.57 29.1176 309.331 24.6848 306.986C23.1845 309.763 22.2965 312.86 22.2364 316.181C22.2066 317.821 22.3364 319.475 22.5743 321.138C24.713 319.107 26.7853 317.248 29.6812 315.973C31.2814 315.268 33.1898 314.803 35.1987 315.352C37.2078 315.901 39.2085 317.777 39.0717 319.478C38.9547 320.935 37.4399 321.697 35.9551 322.128C31.9854 323.281 27.2945 323.2 22.6996 321.915C23.784 328.582 26.5011 335.388 27.843 342.082C29.9228 340.112 31.9621 338.317 34.7821 337.075C36.3824 336.371 38.2907 335.906 40.2998 336.455C42.3087 337.004 44.3094 338.879 44.1727 340.581C44.0558 342.037 42.541 342.8 41.0561 343.231C37.1533 344.365 32.5533 344.307 28.033 343.084C28.0543 343.204 28.0812 343.325 28.1014 343.445C29.0872 349.225 28.1628 354.813 26.7112 359.969C28.9674 358.519 31.2169 357.236 34.0663 356.487C35.8247 356.024 37.8594 355.83 39.8293 356.617C41.799 357.404 43.5409 359.454 43.1188 361.059C42.7573 362.433 41.0773 362.962 39.4829 363.179C35.3379 363.743 30.6874 363.104 26.2957 361.39C24.824 366.24 22.8276 370.865 20.4319 375.256C23.1138 374.161 25.7334 373.218 28.9097 372.911C30.8014 372.729 32.9273 372.841 34.8065 373.873C36.6854 374.904 38.0973 377.1 37.3684 378.559C36.7444 379.808 34.9211 380.065 33.2433 380.039C28.8164 379.969 24.0807 378.654 19.8367 376.327C19.0388 377.739 18.2009 379.127 17.3238 380.49C15.9981 382.549 14.5833 384.558 13.0723 386.5C15.6672 385.451 18.2246 384.56 21.2994 384.259C23.2002 384.074 25.3358 384.182 27.22 385.212Z" fill="#9BAD66"/>
<path d="M53.62 433.12V453.72C53.62 456.013 52.9133 457.853 51.5 459.24C50.0867 460.6 48.22 461.28 45.9 461.28C43.5533 461.28 41.6733 460.587 40.26 459.2C38.8467 457.787 38.14 455.867 38.14 453.44H41.78C41.8067 454.8 42.1533 455.907 42.82 456.76C43.5133 457.613 44.54 458.04 45.9 458.04C47.26 458.04 48.2733 457.64 48.94 456.84C49.6067 456.013 49.94 454.973 49.94 453.72V433.12H53.62ZM64.3509 433.12V450.76C64.3509 453.24 64.9509 455.08 66.1509 456.28C67.3776 457.48 69.0709 458.08 71.2309 458.08C73.3643 458.08 75.0309 457.48 76.2309 456.28C77.4576 455.08 78.0709 453.24 78.0709 450.76V433.12H81.7109V450.72C81.7109 453.04 81.2443 455 80.3109 456.6C79.3776 458.173 78.1109 459.347 76.5109 460.12C74.9376 460.893 73.1643 461.28 71.1909 461.28C69.2176 461.28 67.4309 460.893 65.8309 460.12C64.2576 459.347 63.0043 458.173 62.0709 456.6C61.1643 455 60.7109 453.04 60.7109 450.72V433.12H64.3509ZM91.4231 433.12V461H87.7831V433.12H91.4231ZM119.107 433.12V461H115.467V448.36H101.267V461H97.6269V433.12H101.267V445.36H115.467V433.12H119.107ZM137.962 461.28C135.376 461.28 133.016 460.68 130.882 459.48C128.749 458.253 127.056 456.56 125.802 454.4C124.576 452.213 123.962 449.76 123.962 447.04C123.962 444.32 124.576 441.88 125.802 439.72C127.056 437.533 128.749 435.84 130.882 434.64C133.016 433.413 135.376 432.8 137.962 432.8C140.576 432.8 142.949 433.413 145.082 434.64C147.216 435.84 148.896 437.52 150.122 439.68C151.349 441.84 151.962 444.293 151.962 447.04C151.962 449.787 151.349 452.24 150.122 454.4C148.896 456.56 147.216 458.253 145.082 459.48C142.949 460.68 140.576 461.28 137.962 461.28ZM137.962 458.12C139.909 458.12 141.656 457.667 143.202 456.76C144.776 455.853 146.002 454.56 146.882 452.88C147.789 451.2 148.242 449.253 148.242 447.04C148.242 444.8 147.789 442.853 146.882 441.2C146.002 439.52 144.789 438.227 143.242 437.32C141.696 436.413 139.936 435.96 137.962 435.96C135.989 435.96 134.229 436.413 132.682 437.32C131.136 438.227 129.909 439.52 129.002 441.2C128.122 442.853 127.682 444.8 127.682 447.04C127.682 449.253 128.122 451.2 129.002 452.88C129.909 454.56 131.136 455.853 132.682 456.76C134.256 457.667 136.016 458.12 137.962 458.12Z" fill="#DDBB99"/>
<path d="M237.06 433.12V461H233.42V448.36H219.22V461H215.58V433.12H219.22V445.36H233.42V433.12H237.06ZM255.915 461.28C253.329 461.28 250.969 460.68 248.835 459.48C246.702 458.253 245.009 456.56 243.755 454.4C242.529 452.213 241.915 449.76 241.915 447.04C241.915 444.32 242.529 441.88 243.755 439.72C245.009 437.533 246.702 435.84 248.835 434.64C250.969 433.413 253.329 432.8 255.915 432.8C258.529 432.8 260.902 433.413 263.035 434.64C265.169 435.84 266.849 437.52 268.075 439.68C269.302 441.84 269.915 444.293 269.915 447.04C269.915 449.787 269.302 452.24 268.075 454.4C266.849 456.56 265.169 458.253 263.035 459.48C260.902 460.68 258.529 461.28 255.915 461.28ZM255.915 458.12C257.862 458.12 259.609 457.667 261.155 456.76C262.729 455.853 263.955 454.56 264.835 452.88C265.742 451.2 266.195 449.253 266.195 447.04C266.195 444.8 265.742 442.853 264.835 441.2C263.955 439.52 262.742 438.227 261.195 437.32C259.649 436.413 257.889 435.96 255.915 435.96C253.942 435.96 252.182 436.413 250.635 437.32C249.089 438.227 247.862 439.52 246.955 441.2C246.075 442.853 245.635 444.8 245.635 447.04C245.635 449.253 246.075 451.2 246.955 452.88C247.862 454.56 249.089 455.853 250.635 456.76C252.209 457.667 253.969 458.12 255.915 458.12ZM278.281 433.12V450.76C278.281 453.24 278.881 455.08 280.081 456.28C281.307 457.48 283.001 458.08 285.161 458.08C287.294 458.08 288.961 457.48 290.161 456.28C291.387 455.08 292.001 453.24 292.001 450.76V433.12H295.641V450.72C295.641 453.04 295.174 455 294.241 456.6C293.307 458.173 292.041 459.347 290.441 460.12C288.867 460.893 287.094 461.28 285.121 461.28C283.147 461.28 281.361 460.893 279.761 460.12C278.187 459.347 276.934 458.173 276.001 456.6C275.094 455 274.641 453.04 274.641 450.72V433.12H278.281ZM310.553 461.28C308.713 461.28 307.059 460.96 305.593 460.32C304.153 459.653 303.019 458.747 302.193 457.6C301.366 456.427 300.939 455.08 300.913 453.56H304.793C304.926 454.867 305.459 455.973 306.393 456.88C307.353 457.76 308.739 458.2 310.553 458.2C312.286 458.2 313.646 457.773 314.633 456.92C315.646 456.04 316.153 454.92 316.153 453.56C316.153 452.493 315.859 451.627 315.273 450.96C314.686 450.293 313.953 449.787 313.073 449.44C312.193 449.093 311.006 448.72 309.513 448.32C307.673 447.84 306.193 447.36 305.073 446.88C303.979 446.4 303.033 445.653 302.233 444.64C301.459 443.6 301.073 442.213 301.073 440.48C301.073 438.96 301.459 437.613 302.233 436.44C303.006 435.267 304.086 434.36 305.473 433.72C306.886 433.08 308.499 432.76 310.313 432.76C312.926 432.76 315.059 433.413 316.713 434.72C318.393 436.027 319.339 437.76 319.553 439.92H315.553C315.419 438.853 314.859 437.92 313.873 437.12C312.886 436.293 311.579 435.88 309.953 435.88C308.433 435.88 307.193 436.28 306.233 437.08C305.273 437.853 304.793 438.947 304.793 440.36C304.793 441.373 305.073 442.2 305.633 442.84C306.219 443.48 306.926 443.973 307.753 444.32C308.606 444.64 309.793 445.013 311.313 445.44C313.153 445.947 314.633 446.453 315.753 446.96C316.873 447.44 317.833 448.2 318.633 449.24C319.433 450.253 319.833 451.64 319.833 453.4C319.833 454.76 319.473 456.04 318.753 457.24C318.033 458.44 316.966 459.413 315.553 460.16C314.139 460.907 312.473 461.28 310.553 461.28ZM328.829 436.08V445.4H338.989V448.4H328.829V458H340.189V461H325.189V433.08H340.189V436.08H328.829Z" fill="#DDBB99"/>
<path d="M418.62 433.12V453.72C418.62 456.013 417.913 457.853 416.5 459.24C415.087 460.6 413.22 461.28 410.9 461.28C408.553 461.28 406.673 460.587 405.26 459.2C403.847 457.787 403.14 455.867 403.14 453.44H406.78C406.807 454.8 407.153 455.907 407.82 456.76C408.513 457.613 409.54 458.04 410.9 458.04C412.26 458.04 413.273 457.64 413.94 456.84C414.607 456.013 414.94 454.973 414.94 453.72V433.12H418.62ZM429.351 433.12V450.76C429.351 453.24 429.951 455.08 431.151 456.28C432.378 457.48 434.071 458.08 436.231 458.08C438.364 458.08 440.031 457.48 441.231 456.28C442.458 455.08 443.071 453.24 443.071 450.76V433.12H446.711V450.72C446.711 453.04 446.244 455 445.311 456.6C444.378 458.173 443.111 459.347 441.511 460.12C439.938 460.893 438.164 461.28 436.191 461.28C434.218 461.28 432.431 460.893 430.831 460.12C429.258 459.347 428.004 458.173 427.071 456.6C426.164 455 425.711 453.04 425.711 450.72V433.12H429.351ZM456.423 433.12V461H452.783V433.12H456.423ZM484.107 433.12V461H480.467V448.36H466.267V461H462.627V433.12H466.267V445.36H480.467V433.12H484.107ZM502.962 461.28C500.376 461.28 498.016 460.68 495.882 459.48C493.749 458.253 492.056 456.56 490.802 454.4C489.576 452.213 488.962 449.76 488.962 447.04C488.962 444.32 489.576 441.88 490.802 439.72C492.056 437.533 493.749 435.84 495.882 434.64C498.016 433.413 500.376 432.8 502.962 432.8C505.576 432.8 507.949 433.413 510.082 434.64C512.216 435.84 513.896 437.52 515.122 439.68C516.349 441.84 516.962 444.293 516.962 447.04C516.962 449.787 516.349 452.24 515.122 454.4C513.896 456.56 512.216 458.253 510.082 459.48C507.949 460.68 505.576 461.28 502.962 461.28ZM502.962 458.12C504.909 458.12 506.656 457.667 508.202 456.76C509.776 455.853 511.002 454.56 511.882 452.88C512.789 451.2 513.242 449.253 513.242 447.04C513.242 444.8 512.789 442.853 511.882 441.2C511.002 439.52 509.789 438.227 508.242 437.32C506.696 436.413 504.936 435.96 502.962 435.96C500.989 435.96 499.229 436.413 497.682 437.32C496.136 438.227 494.909 439.52 494.002 441.2C493.122 442.853 492.682 444.8 492.682 447.04C492.682 449.253 493.122 451.2 494.002 452.88C494.909 454.56 496.136 455.853 497.682 456.76C499.256 457.667 501.016 458.12 502.962 458.12Z" fill="#DDBB99"/>
<path d="M602.06 433.12V461H598.42V448.36H584.22V461H580.58V433.12H584.22V445.36H598.42V433.12H602.06ZM620.915 461.28C618.329 461.28 615.969 460.68 613.835 459.48C611.702 458.253 610.009 456.56 608.755 454.4C607.529 452.213 606.915 449.76 606.915 447.04C606.915 444.32 607.529 441.88 608.755 439.72C610.009 437.533 611.702 435.84 613.835 434.64C615.969 433.413 618.329 432.8 620.915 432.8C623.529 432.8 625.902 433.413 628.035 434.64C630.169 435.84 631.849 437.52 633.075 439.68C634.302 441.84 634.915 444.293 634.915 447.04C634.915 449.787 634.302 452.24 633.075 454.4C631.849 456.56 630.169 458.253 628.035 459.48C625.902 460.68 623.529 461.28 620.915 461.28ZM620.915 458.12C622.862 458.12 624.609 457.667 626.155 456.76C627.729 455.853 628.955 454.56 629.835 452.88C630.742 451.2 631.195 449.253 631.195 447.04C631.195 444.8 630.742 442.853 629.835 441.2C628.955 439.52 627.742 438.227 626.195 437.32C624.649 436.413 622.889 435.96 620.915 435.96C618.942 435.96 617.182 436.413 615.635 437.32C614.089 438.227 612.862 439.52 611.955 441.2C611.075 442.853 610.635 444.8 610.635 447.04C610.635 449.253 611.075 451.2 611.955 452.88C612.862 454.56 614.089 455.853 615.635 456.76C617.209 457.667 618.969 458.12 620.915 458.12ZM643.281 433.12V450.76C643.281 453.24 643.881 455.08 645.081 456.28C646.307 457.48 648.001 458.08 650.161 458.08C652.294 458.08 653.961 457.48 655.161 456.28C656.387 455.08 657.001 453.24 657.001 450.76V433.12H660.641V450.72C660.641 453.04 660.174 455 659.241 456.6C658.307 458.173 657.041 459.347 655.441 460.12C653.867 460.893 652.094 461.28 650.121 461.28C648.147 461.28 646.361 460.893 644.761 460.12C643.187 459.347 641.934 458.173 641.001 456.6C640.094 455 639.641 453.04 639.641 450.72V433.12H643.281ZM675.553 461.28C673.713 461.28 672.059 460.96 670.593 460.32C669.153 459.653 668.019 458.747 667.193 457.6C666.366 456.427 665.939 455.08 665.913 453.56H669.793C669.926 454.867 670.459 455.973 671.393 456.88C672.353 457.76 673.739 458.2 675.553 458.2C677.286 458.2 678.646 457.773 679.633 456.92C680.646 456.04 681.153 454.92 681.153 453.56C681.153 452.493 680.859 451.627 680.273 450.96C679.686 450.293 678.953 449.787 678.073 449.44C677.193 449.093 676.006 448.72 674.513 448.32C672.673 447.84 671.193 447.36 670.073 446.88C668.979 446.4 668.033 445.653 667.233 444.64C666.459 443.6 666.073 442.213 666.073 440.48C666.073 438.96 666.459 437.613 667.233 436.44C668.006 435.267 669.086 434.36 670.473 433.72C671.886 433.08 673.499 432.76 675.313 432.76C677.926 432.76 680.059 433.413 681.713 434.72C683.393 436.027 684.339 437.76 684.553 439.92H680.553C680.419 438.853 679.859 437.92 678.873 437.12C677.886 436.293 676.579 435.88 674.953 435.88C673.433 435.88 672.193 436.28 671.233 437.08C670.273 437.853 669.793 438.947 669.793 440.36C669.793 441.373 670.073 442.2 670.633 442.84C671.219 443.48 671.926 443.973 672.753 444.32C673.606 444.64 674.793 445.013 676.313 445.44C678.153 445.947 679.633 446.453 680.753 446.96C681.873 447.44 682.833 448.2 683.633 449.24C684.433 450.253 684.833 451.64 684.833 453.4C684.833 454.76 684.473 456.04 683.753 457.24C683.033 458.44 681.966 459.413 680.553 460.16C679.139 460.907 677.473 461.28 675.553 461.28ZM693.829 436.08V445.4H703.989V448.4H693.829V458H705.189V461H690.189V433.08H705.189V436.08H693.829Z" fill="#DDBB99"/>
<path d="M783.62 433.12V453.72C783.62 456.013 782.913 457.853 781.5 459.24C780.087 460.6 778.22 461.28 775.9 461.28C773.553 461.28 771.673 460.587 770.26 459.2C768.847 457.787 768.14 455.867 768.14 453.44H771.78C771.807 454.8 772.153 455.907 772.82 456.76C773.513 457.613 774.54 458.04 775.9 458.04C777.26 458.04 778.273 457.64 778.94 456.84C779.607 456.013 779.94 454.973 779.94 453.72V433.12H783.62ZM794.351 433.12V450.76C794.351 453.24 794.951 455.08 796.151 456.28C797.378 457.48 799.071 458.08 801.231 458.08C803.364 458.08 805.031 457.48 806.231 456.28C807.458 455.08 808.071 453.24 808.071 450.76V433.12H811.711V450.72C811.711 453.04 811.244 455 810.311 456.6C809.378 458.173 808.111 459.347 806.511 460.12C804.938 460.893 803.164 461.28 801.191 461.28C799.218 461.28 797.431 460.893 795.831 460.12C794.258 459.347 793.004 458.173 792.071 456.6C791.164 455 790.711 453.04 790.711 450.72V433.12H794.351ZM821.423 433.12V461H817.783V433.12H821.423ZM849.107 433.12V461H845.467V448.36H831.267V461H827.627V433.12H831.267V445.36H845.467V433.12H849.107ZM867.962 461.28C865.376 461.28 863.016 460.68 860.882 459.48C858.749 458.253 857.056 456.56 855.802 454.4C854.576 452.213 853.962 449.76 853.962 447.04C853.962 444.32 854.576 441.88 855.802 439.72C857.056 437.533 858.749 435.84 860.882 434.64C863.016 433.413 865.376 432.8 867.962 432.8C870.576 432.8 872.949 433.413 875.082 434.64C877.216 435.84 878.896 437.52 880.122 439.68C881.349 441.84 881.962 444.293 881.962 447.04C881.962 449.787 881.349 452.24 880.122 454.4C878.896 456.56 877.216 458.253 875.082 459.48C872.949 460.68 870.576 461.28 867.962 461.28ZM867.962 458.12C869.909 458.12 871.656 457.667 873.202 456.76C874.776 455.853 876.002 454.56 876.882 452.88C877.789 451.2 878.242 449.253 878.242 447.04C878.242 444.8 877.789 442.853 876.882 441.2C876.002 439.52 874.789 438.227 873.242 437.32C871.696 436.413 869.936 435.96 867.962 435.96C865.989 435.96 864.229 436.413 862.682 437.32C861.136 438.227 859.909 439.52 859.002 441.2C858.122 442.853 857.682 444.8 857.682 447.04C857.682 449.253 858.122 451.2 859.002 452.88C859.909 454.56 861.136 455.853 862.682 456.76C864.256 457.667 866.016 458.12 867.962 458.12Z" fill="#DDBB99"/>
<path d="M1 991C13.0547 901.2 105.731 775.48 380 991H1Z" fill="#FBFBEC"/>
<path d="M1 991C13.0547 1080.8 105.731 1206.52 380 991H1Z" fill="#FBFBEC"/>
<path d="M883.643 1427.17C881.871 1428.29 880.672 1431.05 881.534 1433.15C882.271 1434.94 884.109 1435.58 885.775 1435.8C890.184 1436.39 894.784 1435.33 898.795 1432.8C901.643 1437.53 904.747 1442.01 908.152 1446.14C908.853 1446.99 910.037 1445.67 909.335 1444.82C905.963 1440.73 902.882 1436.3 900.059 1431.63C902.833 1428.74 905.397 1425.98 907.445 1422.27C908.555 1420.25 909.455 1417.9 909.23 1415.56C909.006 1413.21 907.284 1411.04 905.338 1411.42C903.672 1411.75 902.514 1413.66 901.736 1415.5C899.795 1420.08 898.941 1425.29 899.277 1430.31C896.843 1426.18 894.603 1421.86 892.541 1417.45C892.166 1416.64 891.796 1415.83 891.432 1415.02C894.296 1412.04 896.948 1409.23 899.054 1405.41C900.164 1403.4 901.064 1401.05 900.839 1398.71C900.615 1396.36 898.893 1394.19 896.947 1394.57C895.281 1394.89 894.123 1396.81 893.345 1398.65C891.353 1403.35 890.507 1408.71 890.918 1413.86C888.206 1407.69 885.823 1401.27 883.97 1394.61C887.182 1392.52 890.168 1390.49 892.829 1387.38C894.27 1385.7 895.57 1383.62 895.782 1381.26C895.995 1378.89 894.73 1376.29 892.781 1376.14C891.113 1376.01 889.643 1377.58 888.555 1379.18C885.885 1383.11 884.12 1387.91 883.495 1392.86C883.214 1391.79 882.947 1390.72 882.694 1389.64C881.747 1385.59 881.006 1381.43 880.663 1377.21C880.476 1374.9 880.475 1372.6 880.595 1370.3C884.251 1368.71 887.644 1367.23 890.832 1364.47C892.458 1363.06 893.996 1361.24 894.504 1358.93C895.012 1356.61 894.097 1353.79 892.202 1353.28C890.581 1352.84 888.94 1354.14 887.669 1355.53C884.232 1359.29 881.745 1364.3 880.632 1369.68C880.764 1367.53 880.993 1365.37 881.273 1363.2C882.165 1356.31 883.518 1349.26 883.935 1342.25C887.5 1340.71 890.815 1339.24 893.935 1336.55C895.562 1335.14 897.102 1333.32 897.612 1331.01C898.123 1328.69 897.211 1325.87 895.317 1325.36C893.696 1324.92 892.053 1326.21 890.781 1327.6C887.612 1331.06 885.247 1335.58 884.019 1340.48C884.17 1336.23 883.935 1332.01 882.997 1327.87C882.377 1325.14 881.432 1322.54 880.293 1320.09C882.869 1316.87 885.245 1313.81 887.018 1309.85C887.968 1307.73 888.682 1305.29 888.272 1302.99C887.862 1300.69 885.971 1298.74 884.055 1299.34C882.416 1299.86 881.41 1301.89 880.778 1303.8C879.25 1308.42 878.787 1313.5 879.425 1318.31C878.84 1317.17 878.22 1316.06 877.566 1314.98C874.611 1310.11 870.92 1305.9 866.64 1302.76C866.537 1302.68 866.418 1302.64 866.295 1302.63C863.864 1300.52 861.457 1298.63 858.548 1297.4C856.725 1296.62 854.666 1296.18 852.819 1297.07C850.973 1297.96 849.545 1300.57 850.208 1302.77C850.775 1304.65 852.531 1305.51 854.154 1305.94C858.183 1307.01 862.508 1306.64 866.478 1304.93C871.432 1308.75 875.818 1314.2 878.733 1320.58C875.786 1318.32 872.984 1316.26 869.563 1315.1C867.697 1314.47 865.614 1314.19 863.813 1315.22C862.013 1316.25 860.721 1318.96 861.5 1321.09C862.167 1322.92 863.969 1323.64 865.615 1323.95C870.12 1324.78 874.891 1323.84 879.067 1321.33C880.804 1325.33 881.963 1329.67 882.324 1334.19C882.502 1336.42 882.523 1338.64 882.438 1340.87C880.137 1337.78 877.917 1334.94 874.935 1332.77C873.287 1331.57 871.355 1330.65 869.416 1331.09C867.477 1331.54 865.666 1333.78 865.956 1336.11C866.203 1338.11 867.772 1339.37 869.281 1340.18C873.316 1342.35 877.952 1342.95 882.385 1341.9C881.915 1350.79 879.842 1359.62 879.119 1368.51C876.882 1365.52 874.701 1362.77 871.796 1360.66C870.148 1359.46 868.217 1358.54 866.278 1358.98C864.339 1359.42 862.528 1361.66 862.817 1363.99C863.065 1365.99 864.634 1367.26 866.143 1368.07C870.109 1370.2 874.658 1370.82 879.022 1369.84C879.012 1370 878.996 1370.16 878.987 1370.32C878.535 1378.02 879.956 1385.75 881.86 1392.97C879.495 1390.66 877.152 1388.58 874.263 1387.13C872.481 1386.23 870.449 1385.66 868.57 1386.43C866.691 1387.2 865.152 1389.72 865.716 1391.96C866.198 1393.88 867.909 1394.86 869.507 1395.39C873.662 1396.79 878.208 1396.63 882.4 1394.96C884.296 1401.77 886.692 1408.36 889.461 1414.68C886.707 1412.79 884.028 1411.11 880.856 1410.21C878.967 1409.68 876.872 1409.51 875.105 1410.62C873.339 1411.74 872.14 1414.51 872.994 1416.6C873.724 1418.39 875.553 1419.01 877.211 1419.23C881.588 1419.81 886.157 1418.74 890.148 1416.23C891.065 1418.26 892.02 1420.28 893.012 1422.26C894.511 1425.26 896.094 1428.2 897.766 1431.07C895.102 1429.25 892.489 1427.65 889.418 1426.78C887.519 1426.24 885.415 1426.06 883.643 1427.17Z" fill="#A4C78C"/>
<path d="M921 20C898.356 20 880 44.8482 880 75.5C880 106.152 898.356 131 921 131" stroke="#9BAD66" stroke-width="5"/>
</svg>
