<svg width="600" height="330" viewBox="0 0 600 330" fill="none" xmlns="http://www.w3.org/2000/svg">
<g clip-path="url(#clip0_344_2724)">
<rect width="600" height="330" fill="white"/>
<path d="M55.5847 262.18C70.9472 246.507 70.9579 221.087 55.6087 205.401C40.2594 189.716 15.3627 189.705 0.000190805 205.377" stroke="#9BAD66" stroke-opacity="0.5" stroke-width="5"/>
<path opacity="0.5" d="M32.5 256C32.5 278.423 50.2399 296.5 72 296.5C93.7601 296.5 111.5 278.423 111.5 256C111.5 233.577 93.7601 215.5 72 215.5C50.2399 215.5 32.5 233.577 32.5 256Z" fill="#9BAD66" stroke="#9BAD66" stroke-width="5"/>
<g opacity="0.5">
<path d="M556.417 88.3916L548.188 83.7666C543.119 80.93 536.798 80.93 531.729 83.7666C526.66 86.6033 510.867 81.9783 503.651 81.9783C501.973 82.3175 500.327 82.9033 498.813 83.7666L490.583 88.3916M490.583 60.0188L498.813 64.6438C503.882 67.4805 510.202 67.4805 515.271 64.6438C520.34 61.8071 526.66 61.8071 531.729 64.6438C536.798 67.4805 543.119 67.4805 548.188 64.6438L556.417 60.0188M490.583 109.975L498.813 105.35C503.882 102.513 510.202 102.513 515.271 105.35C520.34 108.187 526.66 108.187 531.729 105.35C536.798 102.513 543.119 102.513 548.188 105.35L556.417 109.975" stroke="#9BAD66" stroke-width="5" stroke-miterlimit="10" stroke-linecap="round" stroke-linejoin="round"/>
</g>
</g>
<defs>
<clipPath id="clip0_344_2724">
<rect width="600" height="330" fill="white"/>
</clipPath>
</defs>
</svg>
