<svg width="600" height="330" viewBox="0 0 600 330" fill="none" xmlns="http://www.w3.org/2000/svg">
<g clip-path="url(#clip0_260_4252)">
<rect width="600" height="330" fill="white"/>
<path d="M14.4774 283.645C15.621 284.309 16.4421 285.835 15.9487 286.92C15.5262 287.849 14.3829 288.113 13.3379 288.167C10.573 288.308 7.64859 287.557 5.06041 286.05C3.3773 288.458 1.52763 290.732 -0.520607 292.8C-0.942306 293.226 -1.72033 292.476 -1.29789 292.049C0.73049 290 2.56726 287.754 4.23613 285.371C2.41921 283.719 0.737704 282.144 -0.641235 280.08C-1.38825 278.962 -2.01149 277.67 -1.92548 276.427C-1.83962 275.184 -0.805699 274.094 0.429882 274.373C1.48735 274.612 2.26266 275.681 2.79681 276.694C4.1288 279.218 4.79014 282.03 4.69765 284.702C6.13417 282.589 7.44333 280.375 8.63832 278.098C8.85582 277.683 9.06977 277.265 9.28014 276.845C7.40387 275.142 5.66572 273.536 4.24793 271.414C3.50082 270.296 2.8778 269.004 2.9638 267.761C3.04966 266.518 4.08358 265.428 5.31902 265.707C6.37651 265.946 7.1518 267.015 7.68598 268.028C9.05325 270.619 9.71308 273.514 9.57664 276.249C11.1399 273.062 12.489 269.725 13.4995 266.246C11.425 264.998 9.49493 263.796 7.74403 262.031C6.79632 261.076 5.92774 259.917 5.73746 258.644C5.54713 257.371 6.28325 256.034 7.50805 256.03C8.55634 256.027 9.51972 256.927 10.2437 257.824C12.0197 260.027 13.2461 262.658 13.7573 265.328C13.9093 264.77 14.0522 264.208 14.186 263.642C14.6867 261.515 15.0553 259.326 15.1713 257.083C15.2345 255.856 15.1804 254.628 15.0505 253.395C12.708 252.4 10.5342 251.475 8.45982 249.877C7.4014 249.061 6.38881 248.028 6.01392 246.771C5.6388 245.513 6.14864 244.045 7.33059 243.847C8.34228 243.677 9.40742 244.434 10.2414 245.227C12.4965 247.37 14.1831 250.149 15.0121 253.066C14.8779 251.908 14.6827 250.747 14.4544 249.578C13.729 245.866 12.7091 242.043 12.2799 238.287C9.99619 237.32 7.87193 236.404 5.84221 234.844C4.78315 234.029 3.76934 232.997 3.39275 231.74C3.01629 230.483 3.52414 229.013 4.70554 228.814C5.71679 228.643 6.78275 229.398 7.61743 230.19C9.69681 232.162 11.2952 234.673 12.1853 237.336C11.989 235.063 12.0371 232.819 12.5307 230.645C12.8566 229.21 13.3906 227.862 14.0503 226.595C12.35 224.773 10.7799 223.047 9.56892 220.862C8.91978 219.69 8.41203 218.361 8.6157 217.15C8.81938 215.939 9.96546 214.972 11.187 215.369C12.2323 215.708 12.9146 216.834 13.3587 217.881C14.4313 220.408 14.843 223.137 14.555 225.679C14.8967 225.095 15.2613 224.528 15.648 223.979C17.3953 221.496 19.6214 219.389 22.2445 217.885C22.3081 217.848 22.3817 217.828 22.4594 217.827C23.9411 216.797 25.4136 215.887 27.218 215.342C28.349 215 29.6362 214.848 30.8211 215.396C32.0058 215.944 32.968 217.395 32.6022 218.543C32.2892 219.525 31.203 219.914 30.1901 220.079C27.6757 220.49 24.9415 220.123 22.3981 219.05C19.3666 220.894 16.7316 223.632 15.0448 226.921C16.8489 225.83 18.5662 224.842 20.6953 224.359C21.856 224.096 23.1626 224.031 24.322 224.651C25.4813 225.271 26.3598 226.769 25.9195 227.879C25.5425 228.83 24.4238 229.142 23.3932 229.239C20.5734 229.503 17.5441 228.814 14.8524 227.307C13.8525 229.373 13.2244 231.645 13.1044 234.044C13.0451 235.229 13.0845 236.416 13.1907 237.606C14.5681 236.051 15.9 234.624 17.7283 233.583C18.7386 233.008 19.9342 232.593 21.1668 232.905C22.3996 233.218 23.594 234.488 23.4668 235.721C23.358 236.777 22.3992 237.39 21.4673 237.763C18.9758 238.76 16.0677 238.897 13.2491 238.162C13.7558 242.927 15.272 247.725 15.9379 252.498C17.2772 250.991 18.587 249.61 20.3675 248.597C21.3778 248.022 22.5733 247.606 23.806 247.919C25.0387 248.232 26.2331 249.501 26.106 250.735C25.9972 251.791 25.0384 252.404 24.1065 252.777C21.657 253.758 18.8047 253.908 16.0308 253.213C16.041 253.299 16.0546 253.385 16.0642 253.471C16.5319 257.6 15.8192 261.671 14.7903 265.452C16.2261 264.311 17.6537 263.292 19.4401 262.633C20.5425 262.225 21.8096 262.001 23.0121 262.486C24.2145 262.972 25.2441 264.379 24.9423 265.555C24.6838 266.561 23.6284 267.013 22.6338 267.235C20.0483 267.815 17.179 267.548 14.4972 266.494C13.4634 270.055 12.1097 273.476 10.5141 276.743C12.2052 275.842 13.8539 275.052 15.832 274.699C17.0101 274.488 18.3262 274.48 19.4664 275.146C20.6064 275.813 21.4276 277.338 20.939 278.421C20.5209 279.348 19.3833 279.61 18.3431 279.661C15.5984 279.795 12.6932 279.043 10.1181 277.541C9.58798 278.593 9.03365 279.629 8.45556 280.65C7.58183 282.19 6.6541 283.699 5.66834 285.163C7.30431 284.298 8.91307 283.549 10.8281 283.204C12.012 282.991 13.3341 282.98 14.4774 283.645Z" fill="#9BAD66"/>
<circle opacity="0.5" cx="630" cy="-6" r="132" fill="#9BAD66"/>
</g>
<defs>
<clipPath id="clip0_260_4252">
<rect width="600" height="330" fill="white"/>
</clipPath>
</defs>
</svg>
