<svg width="1199" height="682" viewBox="0 0 1199 682" fill="none" xmlns="http://www.w3.org/2000/svg">
<path d="M1145.07 539.121C1143.43 539.351 1142.08 540.798 1142.56 542.378C1142.98 543.73 1144.47 544.637 1145.86 545.236C1149.55 546.819 1153.59 547.392 1157.31 546.869C1159.17 550.674 1161.29 554.4 1163.7 557.976C1164.19 558.712 1165.36 558.191 1164.86 557.453C1162.47 553.911 1160.37 550.226 1158.52 546.458C1161.23 545.365 1163.74 544.295 1165.92 542.474C1167.11 541.487 1168.15 540.225 1168.24 538.659C1168.32 537.094 1167.11 535.234 1165.41 534.944C1163.95 534.697 1162.74 535.61 1161.86 536.576C1159.66 538.985 1158.32 542.088 1158.01 545.404C1156.43 542.087 1155.03 538.71 1153.8 535.314C1153.57 534.695 1153.35 534.074 1153.14 533.453C1155.93 532.327 1158.52 531.249 1160.77 529.376C1161.95 528.389 1163 527.127 1163.08 525.561C1163.17 523.996 1161.96 522.136 1160.26 521.847C1158.8 521.599 1157.59 522.512 1156.71 523.478C1154.45 525.952 1153.1 529.156 1152.84 532.572C1151.26 527.876 1149.99 523.104 1149.2 518.332C1152.19 517.863 1154.97 517.378 1157.6 516.112C1159.03 515.427 1160.38 514.452 1160.84 512.991C1161.3 511.53 1160.53 509.519 1158.89 508.89C1157.49 508.351 1156.05 508.96 1154.93 509.689C1152.19 511.477 1150.12 514.072 1149 517.077C1148.89 516.317 1148.79 515.556 1148.7 514.796C1148.38 511.937 1148.24 509.071 1148.44 506.267C1148.56 504.735 1148.83 503.259 1149.2 501.817C1152.51 501.795 1155.57 501.772 1158.61 500.875C1160.16 500.418 1161.69 499.67 1162.4 498.323C1163.1 496.976 1162.66 494.919 1161.11 494.073C1159.78 493.35 1158.22 493.732 1156.98 494.277C1153.61 495.749 1150.89 498.288 1149.31 501.434C1149.68 500.086 1150.13 498.764 1150.62 497.451C1152.2 493.279 1154.18 489.122 1155.37 484.745C1158.59 484.728 1161.59 484.69 1164.56 483.817C1166.11 483.361 1167.64 482.616 1168.35 481.27C1169.06 479.924 1168.62 477.866 1167.06 477.02C1165.73 476.295 1164.18 476.675 1162.93 477.217C1159.83 478.57 1157.28 480.827 1155.65 483.63C1156.28 480.949 1156.58 478.179 1156.27 475.268C1156.07 473.345 1155.57 471.424 1154.89 469.536C1157.47 468.175 1159.85 466.864 1161.83 464.808C1162.89 463.706 1163.79 462.339 1163.71 460.753C1163.63 459.167 1162.25 457.4 1160.55 457.262C1159.09 457.144 1158 458.173 1157.23 459.227C1155.38 461.772 1154.39 464.901 1154.36 468.158C1154 467.27 1153.6 466.39 1153.17 465.52C1151.23 461.591 1148.59 457.878 1145.31 454.699C1145.23 454.621 1145.14 454.559 1145.03 454.518C1143.21 452.502 1141.39 450.638 1139.06 449.05C1137.59 448.054 1135.89 447.211 1134.21 447.277C1132.54 447.343 1131.01 448.628 1131.32 450.219C1131.58 451.58 1132.97 452.61 1134.3 453.329C1137.61 455.115 1141.33 456.061 1144.92 456.046C1148.69 459.849 1151.78 464.543 1153.5 469.428C1151.26 467.172 1149.12 465.087 1146.34 463.411C1144.83 462.497 1143.09 461.75 1141.43 461.917C1139.78 462.084 1138.35 463.469 1138.76 465.052C1139.12 466.407 1140.57 467.36 1141.93 468.004C1145.67 469.766 1149.85 470.47 1153.7 469.999C1154.71 473.037 1155.18 476.137 1154.95 479.133C1154.84 480.613 1154.59 482.046 1154.26 483.448C1152.66 480.843 1151.11 478.416 1148.82 476.21C1147.56 474.991 1146.03 473.873 1144.32 473.626C1142.62 473.38 1140.81 474.324 1140.78 475.898C1140.76 477.245 1141.94 478.485 1143.13 479.417C1146.31 481.908 1150.19 483.56 1154.09 484.098C1152.64 489.669 1149.83 494.766 1148.16 500.267C1146.61 497.739 1145.07 495.382 1142.85 493.233C1141.59 492.014 1140.05 490.896 1138.35 490.65C1136.65 490.403 1134.84 491.347 1134.81 492.922C1134.78 494.269 1135.97 495.508 1137.16 496.44C1140.29 498.89 1144.09 500.529 1147.92 501.095C1147.89 501.195 1147.86 501.293 1147.83 501.393C1146.54 506.207 1146.83 511.551 1147.6 516.702C1145.86 514.574 1144.11 512.598 1141.82 510.88C1140.41 509.819 1138.74 508.898 1137.05 508.879C1135.36 508.859 1133.75 510.055 1133.97 511.648C1134.15 513.011 1135.49 514.102 1136.79 514.882C1140.16 516.911 1144.05 518.048 1147.82 518.127C1148.63 523.011 1149.89 527.887 1151.5 532.699C1149.38 530.733 1147.3 528.926 1144.7 527.484C1143.16 526.625 1141.39 525.944 1139.76 526.178C1138.12 526.411 1136.77 527.859 1137.25 529.433C1137.66 530.781 1139.14 531.681 1140.53 532.274C1144.19 533.839 1148.21 534.401 1151.9 533.878C1152.44 535.435 1153.02 536.986 1153.63 538.529C1154.55 540.86 1155.55 543.18 1156.64 545.474C1154.58 543.581 1152.55 541.843 1150.03 540.444C1148.48 539.579 1146.71 538.891 1145.07 539.121Z" fill="#CEE8B0"/>
<path d="M103.897 521.015C132.106 492.831 132.126 447.115 103.941 418.907C75.7569 390.698 30.0413 390.678 1.83262 418.863" stroke="#9BAD66" stroke-opacity="0.5" stroke-width="5"/>
<circle opacity="0.5" cx="54" cy="54" r="51.5" transform="matrix(-1 0 0 1 190 439)" fill="#9BAD66" stroke="#9BAD66" stroke-width="5"/>
<path opacity="0.6" d="M1199 15C1143.22 15 1098 59.9954 1098 115.5C1098 171.005 1143.22 216 1199 216" stroke="#9BAD66" stroke-width="5"/>
<circle opacity="0.7" cx="1110" cy="219" r="19.5" fill="#9BAD66" stroke="#9BAD66" stroke-width="5"/>
</svg>
