<svg width="770" height="717" viewBox="0 0 770 717" fill="none" xmlns="http://www.w3.org/2000/svg">
<path d="M48.4352 242.369C51.3054 244.037 53.3661 247.865 52.1278 250.59C51.0673 252.922 48.1979 253.585 45.575 253.719C38.6355 254.073 31.2956 252.187 24.7996 248.407C20.5752 254.45 15.9327 260.156 10.7919 265.348C9.73351 266.417 7.78078 264.534 8.84104 263.462C13.932 258.321 18.5421 252.683 22.7308 246.701C18.1705 242.556 13.9501 238.602 10.4892 233.422C8.61425 230.616 7.05001 227.374 7.26586 224.253C7.48136 221.133 10.0764 218.398 13.1775 219.098C15.8316 219.698 17.7776 222.381 19.1182 224.923C22.4614 231.259 24.1213 238.316 23.8891 245.022C27.4946 239.72 30.7804 234.163 33.7797 228.448C34.3256 227.405 34.8626 226.356 35.3906 225.302C30.6814 221.028 26.3189 216.997 22.7604 211.671C20.8852 208.864 19.3215 205.623 19.5374 202.502C19.7528 199.382 22.3479 196.647 25.4487 197.347C28.1028 197.947 30.0487 200.63 31.3894 203.172C34.8211 209.677 36.4772 216.941 36.1348 223.805C40.0583 215.807 43.4444 207.431 45.9807 198.699C40.7739 195.567 35.9297 192.552 31.5351 188.121C29.1565 185.724 26.9765 182.816 26.4989 179.62C26.0212 176.424 27.8688 173.068 30.9429 173.06C33.5739 173.053 35.9919 175.31 37.8091 177.563C42.2665 183.09 45.3446 189.696 46.6278 196.396C47.0093 194.995 47.368 193.584 47.7037 192.164C48.9603 186.825 49.8855 181.332 50.1767 175.701C50.3352 172.623 50.1994 169.54 49.8734 166.445C43.994 163.949 38.5381 161.627 33.3317 157.616C30.6752 155.569 28.1337 152.975 27.1928 149.819C26.2513 146.664 27.5309 142.977 30.4975 142.481C33.0367 142.056 35.71 143.954 37.8031 145.944C43.4632 151.325 47.6965 158.298 49.777 165.619C49.4403 162.714 48.9504 159.799 48.3774 156.866C46.5567 147.548 43.9968 137.953 42.9195 128.526C37.1878 126.1 31.8562 123.8 26.7618 119.884C24.1037 117.84 21.5592 115.25 20.614 112.094C19.6691 108.939 20.9437 105.251 23.9089 104.75C26.447 104.322 29.1225 106.217 31.2174 108.204C36.4364 113.154 40.4482 119.457 42.6823 126.14C42.1894 120.434 42.3101 114.802 43.549 109.346C44.367 105.744 45.7073 102.361 47.3632 99.18C43.0956 94.6073 39.1548 90.2749 36.1154 84.7911C34.4861 81.8514 33.2117 78.5155 33.7229 75.4751C34.2341 72.4346 37.1106 70.009 40.1766 71.0045C42.8 71.8564 44.5127 74.6825 45.6273 77.309C48.3193 83.6517 49.3526 90.5011 48.6297 96.8818C49.4875 95.4171 50.4026 93.9936 51.3731 92.6143C55.7586 86.3829 61.3458 81.0957 67.9296 77.32C68.0892 77.2261 68.2739 77.1763 68.4688 77.1746C72.1878 74.5904 75.8837 72.3062 80.4124 70.9374C83.2509 70.0792 86.4818 69.6976 89.4557 71.0728C92.4293 72.4482 94.8443 76.0901 93.9262 78.9708C93.1406 81.4366 90.4142 82.4116 87.8719 82.8272C81.5613 83.8583 74.6986 82.937 68.315 80.2435C60.7063 84.8722 54.0927 91.7436 49.8593 99.9984C54.3873 97.2598 58.6974 94.7808 64.0412 93.5698C66.9545 92.9096 70.2338 92.7459 73.1437 94.3022C76.0534 95.8581 78.2584 99.6179 77.1533 102.405C76.2071 104.79 73.3992 105.574 70.8126 105.816C63.7352 106.48 56.132 104.752 49.3762 100.968C46.8666 106.154 45.2903 111.856 44.9891 117.877C44.8403 120.85 44.939 123.831 45.2056 126.818C48.6627 122.915 52.0056 119.332 56.5945 116.72C59.1302 115.276 62.1309 114.234 65.2246 115.019C68.3187 115.803 71.3167 118.99 70.9974 122.086C70.7242 124.736 68.3178 126.275 65.9789 127.211C59.7256 129.715 52.4264 130.059 45.3521 128.212C46.6239 140.172 50.4295 152.214 52.1006 164.195C55.4622 160.411 58.7497 156.946 63.2184 154.403C65.7543 152.959 68.7547 151.917 71.8487 152.702C74.9425 153.486 77.9405 156.673 77.6214 159.769C77.3484 162.419 74.942 163.958 72.603 164.894C66.455 167.356 59.2959 167.733 52.3338 165.99C52.3594 166.206 52.3937 166.422 52.4178 166.637C53.5916 177 51.8029 187.218 49.2205 196.707C52.8242 193.845 56.4071 191.287 60.8907 189.631C63.6577 188.609 66.838 188.045 69.8561 189.264C72.874 190.483 75.4581 194.014 74.7006 196.965C74.0519 199.49 71.4028 200.624 68.9066 201.183C62.4172 202.638 55.2158 201.969 48.4847 199.323C45.8901 208.261 42.4925 216.846 38.4876 225.047C42.732 222.784 46.87 220.803 51.8349 219.915C54.7919 219.387 58.0952 219.367 60.9567 221.039C63.818 222.711 65.8792 226.54 64.653 229.259C63.6034 231.585 60.7482 232.241 58.1374 232.369C51.2486 232.707 43.9568 230.82 37.4939 227.05C36.1632 229.69 34.7719 232.291 33.321 234.851C31.128 238.719 28.7995 242.506 26.3254 246.18C30.4315 244.009 34.4693 242.129 39.2757 241.263C42.2472 240.727 45.5656 240.7 48.4352 242.369Z" fill="#CEE8B0"/>
<path d="M700.565 602.369C697.695 604.037 695.634 607.865 696.872 610.59C697.933 612.922 700.802 613.585 703.425 613.719C710.365 614.073 717.704 612.187 724.2 608.407C728.425 614.45 733.067 620.156 738.208 625.348C739.266 626.417 741.219 624.534 740.159 623.462C735.068 618.321 730.458 612.683 726.269 606.701C730.829 602.556 735.05 598.602 738.511 593.422C740.386 590.616 741.95 587.374 741.734 584.253C741.519 581.133 738.924 578.398 735.822 579.098C733.168 579.698 731.222 582.381 729.882 584.923C726.539 591.259 724.879 598.316 725.111 605.022C721.505 599.72 718.22 594.163 715.22 588.448C714.674 587.405 714.137 586.356 713.609 585.302C718.319 581.028 722.681 576.997 726.24 571.671C728.115 568.864 729.679 565.623 729.463 562.502C729.247 559.382 726.652 556.647 723.551 557.347C720.897 557.947 718.951 560.63 717.611 563.172C714.179 569.677 712.523 576.941 712.865 583.805C708.942 575.807 705.556 567.431 703.019 558.699C708.226 555.567 713.07 552.552 717.465 548.121C719.843 545.724 722.024 542.816 722.501 539.62C722.979 536.424 721.131 533.068 718.057 533.06C715.426 533.053 713.008 535.31 711.191 537.563C706.734 543.09 703.655 549.696 702.372 556.396C701.991 554.995 701.632 553.584 701.296 552.164C700.04 546.825 699.115 541.332 698.823 535.701C698.665 532.623 698.801 529.54 699.127 526.445C705.006 523.949 710.462 521.627 715.668 517.616C718.325 515.569 720.866 512.975 721.807 509.819C722.749 506.664 721.469 502.977 718.503 502.481C715.963 502.056 713.29 503.954 711.197 505.944C705.537 511.325 701.304 518.298 699.223 525.619C699.56 522.714 700.05 519.799 700.623 516.866C702.443 507.548 705.003 497.953 706.08 488.526C711.812 486.1 717.144 483.8 722.238 479.884C724.896 477.84 727.441 475.25 728.386 472.094C729.331 468.939 728.056 465.251 725.091 464.75C722.553 464.322 719.878 466.217 717.783 468.204C712.564 473.154 708.552 479.457 706.318 486.14C706.811 480.434 706.69 474.802 705.451 469.346C704.633 465.744 703.293 462.361 701.637 459.18C705.904 454.607 709.845 450.275 712.885 444.791C714.514 441.851 715.788 438.516 715.277 435.475C714.766 432.435 711.889 430.009 708.823 431.005C706.2 431.856 704.487 434.683 703.373 437.309C700.681 443.652 699.647 450.501 700.37 456.882C699.513 455.417 698.597 453.994 697.627 452.614C693.241 446.383 687.654 441.096 681.07 437.32C680.911 437.226 680.726 437.176 680.531 437.175C676.812 434.59 673.116 432.306 668.588 430.937C665.749 430.079 662.518 429.698 659.544 431.073C656.571 432.448 654.156 436.09 655.074 438.971C655.859 441.437 658.586 442.412 661.128 442.827C667.439 443.858 674.301 442.937 680.685 440.243C688.294 444.872 694.907 451.744 699.141 459.998C694.613 457.26 690.303 454.781 684.959 453.57C682.045 452.91 678.766 452.746 675.856 454.302C672.947 455.858 670.742 459.618 671.847 462.405C672.793 464.79 675.601 465.574 678.187 465.816C685.265 466.48 692.868 464.752 699.624 460.968C702.133 466.154 703.71 471.856 704.011 477.877C704.16 480.85 704.061 483.831 703.794 486.818C700.337 482.915 696.994 479.332 692.405 476.72C689.87 475.276 686.869 474.234 683.775 475.019C680.681 475.803 677.683 478.99 678.003 482.086C678.276 484.736 680.682 486.275 683.021 487.211C689.274 489.715 696.574 490.059 703.648 488.212C702.376 500.172 698.571 512.214 696.899 524.195C693.538 520.411 690.25 516.946 685.782 514.403C683.246 512.959 680.245 511.917 677.151 512.702C674.057 513.486 671.059 516.673 671.379 519.769C671.652 522.419 674.058 523.958 676.397 524.894C682.545 527.356 689.704 527.733 696.666 525.99C696.641 526.206 696.606 526.422 696.582 526.637C695.408 537 697.197 547.218 699.78 556.707C696.176 553.845 692.593 551.287 688.109 549.631C685.342 548.609 682.162 548.045 679.144 549.264C676.126 550.483 673.542 554.014 674.299 556.965C674.948 559.49 677.597 560.624 680.093 561.183C686.583 562.638 693.784 561.969 700.515 559.323C703.11 568.261 706.508 576.846 710.512 585.047C706.268 582.784 702.13 580.803 697.165 579.915C694.208 579.387 690.905 579.367 688.043 581.039C685.182 582.711 683.121 586.54 684.347 589.259C685.397 591.585 688.252 592.241 690.863 592.369C697.751 592.707 705.043 590.82 711.506 587.05C712.837 589.69 714.228 592.291 715.679 594.851C717.872 598.719 720.2 602.506 722.675 606.18C718.569 604.009 714.531 602.129 709.724 601.263C706.753 600.727 703.434 600.7 700.565 602.369Z" fill="#CEE8B0"/>
</svg>
