<svg width="815" height="594" viewBox="0 0 815 594" fill="none" xmlns="http://www.w3.org/2000/svg">
<path d="M33.816 545.576C35.338 546.591 36.314 549.257 35.5044 551.356C34.8111 553.152 33.186 553.854 31.7215 554.148C27.8468 554.924 23.8488 554.081 20.4043 551.78C17.7868 556.544 14.9519 561.092 11.8625 565.298C11.2265 566.164 10.2242 564.922 10.8614 564.054C13.9208 559.888 16.7347 555.394 19.3296 550.677C16.9777 547.963 14.8064 545.365 13.1118 541.807C12.1938 539.88 11.4679 537.609 11.7265 535.294C11.9849 532.98 13.5494 530.773 15.2428 531.058C16.6921 531.302 17.6551 533.134 18.2878 534.906C19.8655 539.324 20.4752 544.398 20.0483 549.354C22.2887 545.181 24.3627 540.845 26.2843 536.413C26.6342 535.604 26.9794 534.792 27.3198 533.976C24.8909 531.178 22.6439 528.534 20.9015 524.876C19.9834 522.948 19.2577 520.677 19.5164 518.363C19.7747 516.049 21.3393 513.842 23.0325 514.127C24.4818 514.371 25.4448 516.203 26.0775 517.975C27.697 522.511 28.2953 527.738 27.8001 532.818C30.3371 526.636 32.592 520.216 34.3901 513.596C31.6338 511.677 29.0738 509.816 26.8268 506.88C25.6105 505.291 24.5273 503.311 24.4037 500.993C24.2799 498.675 25.4563 496.066 27.1662 495.832C28.6296 495.631 29.874 497.113 30.7845 498.638C33.0178 502.377 34.4362 507.013 34.8522 511.852C35.1266 510.792 35.3887 509.726 35.6384 508.656C36.5743 504.63 37.3327 500.515 37.7447 496.347C37.9695 494.068 38.0309 491.808 37.987 489.552C34.8284 488.152 31.8975 486.847 29.1804 484.279C27.794 482.97 26.4959 481.248 26.1128 478.994C25.7293 476.74 26.6046 473.93 28.2763 473.344C29.7072 472.842 31.1096 474.041 32.1852 475.351C35.0938 478.893 37.1382 483.715 37.9701 488.951C37.9119 486.837 37.7689 484.726 37.5805 482.609C36.9818 475.882 35.9842 469.006 35.8038 462.143C32.7241 460.782 29.8614 459.484 27.2023 456.979C25.8149 455.672 24.515 453.953 24.1295 451.699C23.7441 449.446 24.6167 446.635 26.2879 446.046C27.7183 445.541 29.122 446.738 30.1987 448.046C32.8811 451.304 34.8322 455.647 35.7778 460.403C35.7571 456.237 36.0743 452.081 37.0055 447.971C37.6203 445.257 38.5158 442.666 39.5779 440.2C37.4078 437.149 35.4087 434.252 33.962 430.439C33.1865 428.395 32.626 426.033 33.0453 423.756C33.4645 421.478 35.1719 419.478 36.8326 419.983C38.2536 420.416 39.0805 422.37 39.5838 424.221C40.7991 428.693 41.0696 433.66 40.3843 438.413C40.9263 437.271 41.4984 436.154 42.0993 435.066C44.8148 430.151 48.1566 425.842 51.9854 422.572C52.0783 422.491 52.1832 422.44 52.2917 422.425C54.4745 420.245 56.6312 418.288 59.2104 416.943C60.827 416.1 62.6405 415.579 64.2333 416.371C65.8258 417.163 67.007 419.665 66.3686 421.855C65.8222 423.73 64.2628 424.65 62.8306 425.145C59.2755 426.374 55.5001 426.205 52.0699 424.696C47.6332 428.671 43.6504 434.223 40.9296 440.617C43.5692 438.264 46.0761 436.118 49.1015 434.828C50.7509 434.126 52.5818 433.761 54.1308 434.691C55.6798 435.621 56.739 438.226 56.0008 440.36C55.3687 442.187 53.7724 442.973 52.3232 443.344C48.3581 444.359 44.2068 443.651 40.6179 441.367C38.9921 445.373 37.8623 449.69 37.4275 454.146C37.2127 456.347 37.1352 458.535 37.1509 460.715C39.2466 457.584 41.2647 454.696 43.9326 452.432C45.4067 451.18 47.1217 450.189 48.8072 450.537C50.493 450.885 52.0186 453.009 51.7036 455.313C51.434 457.285 50.0275 458.597 48.6852 459.461C45.0967 461.769 41.0224 462.565 37.1705 461.731C37.3466 470.444 38.9282 479.03 39.3255 487.73C41.3628 484.694 43.3449 481.897 45.9428 479.692C47.4171 478.44 49.1318 477.45 50.8175 477.798C52.5032 478.145 54.0288 480.27 53.7139 482.574C53.4444 484.545 52.0379 485.858 50.6956 486.721C47.1675 488.991 43.1697 489.8 39.3755 489.034C39.3801 489.192 39.3896 489.348 39.3934 489.505C39.586 497.05 38.1376 504.708 36.2802 511.888C38.4113 509.512 40.5174 507.362 43.0841 505.81C44.6682 504.851 46.4618 504.199 48.086 504.873C49.7101 505.546 50.9903 507.955 50.438 510.184C49.9652 512.093 48.4417 513.124 47.0288 513.722C43.3554 515.276 39.3805 515.318 35.7549 513.87C33.9152 520.645 31.6446 527.22 29.0534 533.558C31.5141 531.576 33.9032 529.809 36.7035 528.787C38.3714 528.177 40.2092 527.918 41.7262 528.936C43.2431 529.955 44.2193 532.622 43.4167 534.715C42.7297 536.506 41.1129 537.202 39.6553 537.49C35.8095 538.251 31.8384 537.403 28.4118 535.107C27.5546 537.15 26.6655 539.169 25.7449 541.163C24.3537 544.174 22.8907 547.136 21.3517 550.026C23.7315 548.122 26.0603 546.437 28.7716 545.442C30.4478 544.827 32.2943 544.56 33.816 545.576Z" fill="#A4C78C"/>
<path d="M7.99993 268.46C33.7017 269.31 55.3926 244.153 56.4478 212.27C57.503 180.387 37.523 153.85 11.8212 153" stroke="#9BAD66" stroke-width="5"/>
<path d="M812.38 142.518L803.569 135.75C798.142 131.599 791.375 131.599 785.948 135.75C780.52 139.901 763.611 133.133 755.885 133.133C754.088 133.63 752.326 134.487 750.705 135.75L741.894 142.518M741.894 101L750.705 107.768C756.132 111.919 762.899 111.919 768.326 107.768C773.754 103.617 780.52 103.617 785.948 107.768C791.375 111.919 798.142 111.919 803.569 107.768L812.38 101M741.894 174.101L750.705 167.333C756.132 163.182 762.899 163.182 768.326 167.333C773.754 171.484 780.52 171.484 785.948 167.333C791.375 163.182 798.142 163.182 803.569 167.333L812.38 174.101" stroke="#9BAD66" stroke-width="5" stroke-miterlimit="10" stroke-linecap="round" stroke-linejoin="round"/>
<circle cx="717" cy="413" r="22.5" fill="#9BAD66" stroke="#9BAD66" stroke-width="5"/>
</svg>
